<svg xmlns="http://www.w3.org/2000/svg"><symbol viewBox="-33 35 32 32" id="icon_animals"><title>animals</title><path fill="currentColor" d="M-6.4 65.5c-.2-1.3-1.6-1.4-2.4-1.3-.9-3.3 2.2-8.3 2.4-9.4.2-1.3-.9-8.6-1-12.3-.1-3.8-5.7-8-6.6-7.3-.9 1 1.3 2.4.1 3.5-1.1 1.1-1.4 1.9-2.3 3.2-2.2 3.3 3.7 3.3 3.7 3.3s-4.6 3.4-5.6 5.1c-.9 1.6-1.3 3.3-2.5 4.8-2.6 3.4-2 9.3-2 9.3s-4.9-1.6-2.2-7.2c2-4.3 3.1-10.5-1.6-8.9-1.8.6.4 1.9.8 2.4 1.3 1.4.2 3.8-.6 5.1-2 3.7-2.8 7.5 1.5 9.9 1.9 1.1 4.5 1.3 7.1 1.3h6.6c2.3.1 4.7-.3 4.6-1.5z"/></symbol><symbol viewBox="-33 35 32 32" id="icon_bitovay_tehnika"><title>bitovay_tehnika</title><g fill="currentColor"><circle cx="-27.9" cy="39.7" r=".8"/><circle cx="-25.4" cy="39.7" r=".8"/><circle cx="-11.1" cy="39.7" r=".8"/><circle cx="-8.6" cy="39.7" r=".8"/><circle cx="-6.1" cy="39.7" r=".8"/><path d="M-17 61.1c3.8 0 6.9-3.1 6.9-6.9 0-3.8-3.1-6.9-6.9-6.9s-6.9 3.1-6.9 6.9c0 3.8 3.1 6.9 6.9 6.9zm0-12.5c3 0 5.5 2.5 5.5 5.5v.1c-.2.2-.5.4-1 .4-.6 0-.9-.3-1.1-.5-.3-.2-.5-.5-1.1-.5-.5 0-.8.2-1.1.5-.3.2-.6.5-1.1.5s-.9-.3-1.1-.5c-.3-.2-.5-.5-1.1-.5-.5 0-.8.2-1.1.5-.3.2-.6.5-1.1.5-.5 0-.8-.2-1.1-.4v-.1c-.1-3 2.4-5.5 5.4-5.5z"/><path d="M-30.5 67h27V41.3h-27V67zM-17 45.6c4.7 0 8.5 3.8 8.5 8.5s-3.8 8.5-8.5 8.5-8.5-3.8-8.5-8.5 3.8-8.5 8.5-8.5zM-30.5 35h27v2.8h-27z"/></g></symbol><symbol viewBox="-33 35 32 32" id="icon_biznes"><title>biznes</title><g fill="currentColor"><path d="M-10.5 50.4c.6 0 1-.1 1.4-.3.5-.3.8-.6 1-1 .2-.4.2-.7 0-1.1-.2-.4-.6-.6-1.1-.6-.4 0-.7.1-1.1.3-1 .5-1.5 2.1-1.5 2.2l-.1.2.3.1c-.2.1.4.2 1.1.2zM-17 51.9c1.1 0 2.2-.9 2.3-.9l.2-.2-.2-.2c0-.1-1.1-1.3-2.3-1.4h-.4c-1.1 0-1.5.6-1.6 1.1 0 .4.1.7.4 1 .3.3.7.4 1.3.5.1.1.2.1.3.1z"/><path d="M-12 54.5c.6-5.6-2-9.5-3.4-11 .3-.3.6-.6.8-1 .9-1.8.2-4.1-1.6-5-.7-.4-1.6-.5-2.3-.4-.3-.7-.9-1.3-1.6-1.7-1.8-.9-4.1-.2-5 1.6-.4.7-.5 1.6-.4 2.3-.7.3-1.3.9-1.7 1.6-.9 1.8-.2 4.1 1.6 5 .7.4 1.6.5 2.3.4.3.7.9 1.3 1.6 1.7 1.8.9 4.1.2 5-1.6.1-.3.2-.6.3-.8 1.2 1.6 2.8 4.7 2.3 8.9h-6.7l3 12.5h8.4l3-12.5H-12zm-8.4-10.3v.4c0 .3-.2.5-.5.5s-.5-.2-.5-.5v-.4c-.5-.1-.9-.3-1.2-.7-.2-.2-.2-.5 0-.7.2-.2.5-.2.7 0 .2.2.6.4 1 .4s.8-.1.8-.4c0-.3-.2-.4-.9-.6-.7-.2-1.6-.5-1.6-1.6 0-.7.5-1.2 1.2-1.3v-.5c0-.3.2-.5.5-.5s.5.2.5.5v.4c.4 0 .8.2 1.1.4.2.1.3.4.1.7-.1.2-.4.3-.7.1-.2-.1-.6-.2-.9-.2-.4 0-.9.1-.9.5s.2.5 1 .7c.6.2 1.6.5 1.6 1.6 0 .6-.5 1.1-1.3 1.2zm10 19.4l-.3 1.4c-.1.2-.2.4-.5.4h-.1c-.3-.1-.4-.3-.4-.6l.3-1.4c.1-.3.3-.4.6-.4.3.1.4.3.4.6zm.6-2.7c-.1.2-.2.4-.5.4h-.1c-.3-.1-.4-.3-.4-.6l.6-2.8c.1-.3.3-.4.6-.4.3.1.4.3.4.6l-.6 2.8z"/></g></symbol><symbol viewBox="0 0 12 7.4" id="icon_bottom-arrow"><title>bottom-arrow</title><path fill="currentColor" d="M1.5.1L6 4.6 10.5.1l1.4 1.3L6 7.3.1 1.4"/></symbol><symbol viewBox="0 0 9 7" id="icon_checked"><title>checked</title><path fill="currentColor" d="M7.5.1L3.4 4.2 1.5 2.3.1 3.6l3.3 3.3 5.5-5.5L7.5.1z"/></symbol><symbol viewBox="-41 43 16 16" id="icon_cross"><title>cross</title><path fill="currentColor" d="M-25 43.9l-.9-.9-7.1 7.1-7.1-7.1-.9.9 7.1 7.1-7.1 7.1.9.9 7.1-7.1 7.1 7.1.9-.9-7.1-7.1"/></symbol><symbol viewBox="-33 35 32 32" id="icon_different-products"><title>different-products</title><g fill="currentColor"><path d="M-4.4 35.4l-4.1 1.4.3.9-12.3 4.2.5 1.5-10.9 3.8.5 1.6-2.6.9.7 1.9 2.6-.9.5 1.7 11-3.8.5 1.5 12.3-4.2.3.9 4.1-1.4M-13.5 54v-2.4h-1.9c-.2-.3-.6-.6-1-.7-.2-.1-.4-.1-.7-.1-.7 0-1.4.3-1.7.8h-1.9V54h1.9l-9.6 12.6h2l8.6-11.4v11.3h1.4V55.2l8.6 11.3h2.5l-10-12.6h1.8v.1z"/></g></symbol><symbol viewBox="0 0 611.038 611.038" id="icon_edit"><title>edit</title><g fill="currentColor"><path d="M529.526 157.55L453.188 81.23 216.765 317.942l77.19 75.444M518.902 15.802l-39.12 39.13 76.338 76.322 39.12-39.13c21.042-21.08 21.08-55.242 0-76.323-21.076-21.074-55.262-21.06-76.338.002zM139.3 471.76l130.236-54.903-75.855-74.138"/><path d="M533.825 224.092l-73.627 72.59v239.783H71.324v-387.28H315.96l68.134-71.968H.002v533.82h533.823"/></g></symbol><symbol viewBox="0 0 32 32" id="icon_elektronika"><title>elektronika</title><path fill="currentColor" d="M29.69 2.925H2.31C1.036 2.925 0 3.96 0 5.235V21.51c0 1.272 1.037 2.31 2.31 2.31H12.89v2.174h-2.446c-.607 0-1.1.492-1.1 1.1v.88c0 .606.492 1.102 1.1 1.102H21.55c.61 0 1.102-.495 1.102-1.1v-.88c0-.61-.49-1.102-1.1-1.102h-2.444V23.82H29.69c1.273 0 2.31-1.037 2.31-2.31V5.234c0-1.273-1.036-2.31-2.31-2.31zm-.712 18.118H3.023V5.7h25.954v15.343z"/></symbol><symbol viewBox="0 0 16 16" id="icon_eye"><title>eye</title><path fill="currentColor" d="M8 3.52C2.75 3.52 0 7.387 0 8s2.75 4.48 8 4.48c5.248 0 8-3.867 8-4.48s-2.752-4.48-8-4.48zm0 7.926c-1.963 0-3.556-1.543-3.556-3.446S6.037 4.554 8 4.554 11.556 6.097 11.556 8 9.963 11.446 8 11.446zM9.777 8c0 .95-.796 1.723-1.777 1.723-.982 0-1.778-.772-1.778-1.723 0-.952.796-1.723 1.778-1.723.53 0-.326 1.366 0 1.723.277.304 1.777-.437 1.777 0z"/></symbol><symbol viewBox="-33 35 32 32" id="icon_furniture"><title>furniture</title><g fill="currentColor"><path d="M-13.1 64.4h-.9c-.7 0-1.2-.6-1.2-1.2v-8.4c0-1-.8-1.8-1.8-1.8s-1.8.8-1.8 1.8v8.4c0 .7-.6 1.2-1.2 1.2h-.9c-1.1 0-2.1.9-2.1 2.1v.5h12v-.6c0-1.1-.9-2-2.1-2z"/><path d="M-3.9 46.8S-9.3 36.1-10 35.5c-.6-.6-1.5-.5-1.5-.5h-11.4s-.9-.1-1.5.5c-.7.6-5.7 11.3-5.7 11.3-.6 1.1-1.2 3-.4 3.7.8.6 2.7.4 3.7.4 1.1 0 2 .8 2.1 1.7.1 1-.2 1.9-.6 2.3-.2.2-.3.5-.3.9 0 .8.7 1.5 1.5 1.5s1.5-.7 1.5-1.5c0-.3-.1-.6-.3-.9-.3-.4-.6-1.3-.5-2.3.1-1 1.2-1.7 2.5-1.7h13.5c1.3 0 3.1-.1 3.8-.7.9-.5.4-2.3-.3-3.4z"/></g></symbol><symbol viewBox="-33 35 32 32" id="icon_gift"><title>gift</title><g fill="currentColor"><path d="M-21.9 58.5l-1.3-2-2.6.5 3.5-6.1h-6.8V67h11.5V50.9M-3 43.2h-7.6c.4-.2.8-.5 1.2-.7 1.4-1 2.1-2.2 2.1-3.4 0-1-.5-2.4-1.2-3-.7-.6-1.6-1-2.6-1s-2 .4-2.9.9c-1.3.8-2.2 2.7-2.9 4 0 .1-.1.1-.1.2-.3-.5-.6-1.6-.9-2.1-.6-.8-1.3-1.6-2.1-2.2-.8-.6-1.8-.9-2.8-.9-1 0-2 .4-2.7 1.1-.7.7-1.2 2.2-1.2 3.2 0 .6.2 1.3.6 1.9.5.7 1.2 1.4 2.3 1.9h-7v6.4h13.2v-6.4h1.6v6.4h13v-6.3zm-20.5-2.1c-.5-.3-.9-.7-1-1-.2-.3-.3-.8-.3-1.1 0-.4.2-1.2.6-1.5.4-.4.9-.6 1.3-.6.6 0 1.2.2 1.8.6.9.6 1.7 2.1 2.3 3.3.3.6.5 1.2.7 1.8-2.7-.2-4.4-.8-5.4-1.5zm9-1.3c.5-.7 1-1.8 1.6-2.2.6-.4 1.2-.6 1.8-.6.5 0 1 .2 1.3.5.3.3.5.8.5 1.2 0 .4-.2 1.4-1.3 2.2-1 .7-2.7 1.4-5.3 1.9.3-1.1.8-2.1 1.4-3zM-8.2 57l-2.6-.5-1.2 2.1-4.3-7.6v16h11.4V50.9h-6.7"/></g></symbol><symbol viewBox="-33 35 32 32" id="icon_hobbi_i_otdih"><title>hobbi_i_otdih</title><path fill="currentColor" d="M-1.2 37.4l-2.2-2.2c-.3-.3-.7-.3-1.1 0l-3.6 3c-.2.1-.3.3-.3.6 0 .2.1.4.2.6l.2.2-8.8 8.8-1.1-1.1c-.6-.6-1.4-1-2.3-1-.8 0-1.6.3-2.2.8l-.2.2c-.4.4-.8.9-1 1.4-.4.7-1 1.1-1.8 1.1-2.1.1-4 1-5.5 2.5-3 3.2-2.8 8.6.5 11.9 1.7 1.7 4 2.7 6.4 2.7 2.2 0 4.3-.8 5.8-2.4 1.4-1.4 2.2-3.3 2.3-5.3 0-.8.4-1.4 1.1-1.7.6-.3 1.2-.7 1.6-1.2 1.2-1.3 1.1-3.3-.1-4.5l-1.1-1.1 8.8-8.8.2.2c.1.1.3.2.6.2.2 0 .4-.1.6-.3l3-3.6c.3-.2.2-.7 0-1zm-17.4 17.7c0 .7-.3 1.3-.7 1.8-.5.5-1.1.7-1.8.7s-1.3-.3-1.8-.7c-.5-.5-.7-1.1-.7-1.8s.3-1.3.7-1.8c.5-.5 1.1-.7 1.8-.7s1.3.3 1.8.7c.4.5.7 1.1.7 1.8zm-4.5 7.8c-.2.2-.4.2-.6.2-.2 0-.4-.1-.6-.2l-4.7-4.7c-.3-.3-.3-.8 0-1.1.3-.3.8-.3 1.1 0l4.7 4.7c.4.3.4.8.1 1.1z"/></symbol><symbol viewBox="0 0 57 57" id="icon_krasota_i_zdorove"><title>krasota_i_zdorove</title><path fill="currentColor" d="M39.157 15.904c-.668-.99-1.518-1.812-2.435-2.457-.465-.32-.938-.59-1.44-.824-.25-.106-.566-.25-.767-.317l-.326-.115-.214-.07-.19-.054c-1.01-.29-2.085-.445-3.188-.38-1.09.082-2.285-.05-3.55.186-1.26.218-2.417 1.012-3.056 2.2-.598 1.196-1.027 3.778.353 4.662 1.028.526 2.82-.118 3.48-.42.624-.306.95-.766 1.328-1.464.373-.67.963-1.336 1.69-1.408.715-.09 1.47-.026 2.228.148l.146.03c-.05-.017.078.022.11.032l.33.097c.24.065.345.125.528.183.344.138.696.31 1.02.512.646.405 1.238.912 1.71 1.547.974 1.246 1.468 2.96 1.454 4.71-.02 1.75-.542 3.524-1.466 4.996-.117.18-.23.37-.365.536l-.18.243-.232.28c-.25.297-.568.627-.877.9-.63.566-1.33 1.036-2.08 1.417-1.05.53-2.187.872-3.366 1.084 5.675-2.424 4.94-9.22 4.94-9.22-.305-.974-4.053-1.74-8.626-1.74-4.577 0-8.323.768-8.628 1.74h-.012s-.003.03-.003.07c-.004.02-.004.038-.004.058v.12c0 4.354 2.46 8.072 5.88 9.4-.148.028-.305.062-.515.15-.17.087-.513.215-.794.7l.01-.02c-.202.348-.208.473-.257.696-.032.208-.022.396 0 .587.056.348.186.614.308.805.122.188.247.326.357.427.123.126.216.182.325.268.11.087.197.127.296.19.1.06.193.106.282.15.184.095.36.164.535.23.392.147.774.26 1.148.355v.372c-2.17.477-3.89 2.376-4.41 4.815-.003.008-.007.026-.007.036 0 .007-.003.032-.006.032h.004s-.004.01-.004.02c0 .703 2.453 1.27 5.48 1.27 3.027 0 5.48-.564 5.48-1.27 0-.01-.004-.02-.006-.02h.035c-.3-1.46-1.03-2.734-2.027-3.628.11-.176.218-.404.28-.717.106-.474-.015-1.002-.16-1.284-.15-.32-.3-.477-.432-.626-.137-.143-.262-.243-.38-.333-.472-.335-.87-.52-1.273-.7-.026-.01-.055-.02-.08-.032.298-.012.594-.028.893-.053 1.892-.148 3.845-.533 5.686-1.43.92-.447 1.808-1.023 2.62-1.73.41-.36.77-.72 1.162-1.168l.236-.28.264-.348c.174-.216.328-.45.49-.68 1.252-1.86 2.035-4.17 2.14-6.58.1-2.393-.515-4.914-1.87-6.886zm-13.042 8.95c-3.724 0-6.744-.6-6.744-1.334 0-.737 3.02-1.336 6.745-1.336s6.744.6 6.744 1.336c-.002.736-3.023 1.334-6.745 1.334z"/></symbol><symbol viewBox="0 0 32 32" id="icon_location"><title>location</title><path fill="currentColor" d="M16 0C9.798 0 4.77 5.028 4.77 11.23c0 .477.04.938.096 1.397.962 8.772 10.405 18.88 10.405 18.88.17.187.33.304.487.386l.007.007.317.1.314-.1.01-.007c.155-.082.315-.2.484-.385 0 0 9.31-10.126 10.245-18.902.062-.452.097-.91.097-1.38C27.227 5.03 22.2 0 16 0zm0 18.452c-3.983 0-7.222-3.24-7.222-7.222 0-3.983 3.24-7.222 7.222-7.222 3.98 0 7.225 3.24 7.225 7.222 0 3.983-3.245 7.222-7.225 7.222z"/></symbol><symbol viewBox="-33 35 32 32" id="icon_lost-property-office"><title>lost-property-office</title><g fill="currentColor"><path d="M-2.3 50.4l-3.8-3.8v-3h-7.4V53c0 4.5-2.8 8.1-6.5 8.3.9 3 3.4 5.2 6.4 5.2h.2c3.9 0 7.3-3.5 7.3-7.9v-4.8l.2.2c1.4 1.4 3.2 1.6 4.2.6 1.1-1.1.9-2.8-.6-4.2zM-6.6 41.2v-.5c0-.6-.5-1.2-1.2-1.2h-5.7v2.9h5.7c.6 0 1.2-.5 1.2-1.2z"/><path d="M-14.1 52.9V39h-13.8v1.9l-.6.6-3.3 3.3c-1.4 1.4-1.6 3.2-.6 4.2.9.9 2.5.9 3.9-.3l.3-.3.3-.3v4.8c0 4.2 3.4 7.8 7.2 7.8h.2c3.6 0 6.4-3.4 6.4-7.8zM-26.4 37.8h10.8c.5 0 .9-.4.9-.9v-.5c0-.2-.1-.5-.3-.6s-.4-.3-.6-.3h-10.8c-.5 0-.9.4-.9.9v.5c0 .5.4.9.9.9z"/></g></symbol><symbol viewBox="0 0 16 10" id="icon_mail"><title>mail</title><path fill="currentColor" d="M15.114 8.334c0 .292-.088.563-.228.802l-4.493-4.71L14.837.78c.172.258.276.56.276.887v6.667zM8 5.28L14.184.21c-.254-.13-.54-.21-.847-.21H2.664c-.31 0-.595.08-.848.21L8 5.28zm1.724-.307L8.292 6.147c-.083.07-.188.103-.292.103-.105 0-.21-.034-.292-.103L6.275 4.973l-4.55 4.77c.274.16.593.257.94.257h10.672c.344 0 .664-.096.938-.257l-4.55-4.77zM1.162.78c-.172.258-.277.56-.277.887v6.667c0 .292.087.563.23.802l4.49-4.712L1.163.78z"/></symbol><symbol viewBox="0 0 10 14" id="icon_mobile"><title>mobile</title><path fill="currentColor" d="M10 13c0 .553-.447 1-1 1H1c-.552 0-1-.447-1-1V1c0-.552.448-1 1-1h8c.553 0 1 .448 1 1v12z"/><path fill="#fff" d="M1 1h8v10H1zM4 12.167h2v.666H4z"/></symbol><symbol viewBox="-33 35 32 32" id="icon_nedvizhimost"><title>nedvizhimost</title><g fill="currentColor"><path d="M-24.4 63.9h5.7v-5.8h3.4v5.8h5.7V38h-14.7v25.9zM-16 41h3.4v3.4H-16V41zm0 5.5h3.4v3.4H-16v-3.4zm0 5.5h3.4v3.4H-16V52zm-5.4-11h3.4v3.4h-3.4V41zm0 5.5h3.4v3.4h-3.4v-3.4zm0 5.5h3.4v3.4h-3.4V52zM-8.3 40.3v18.3h2.2v5.3H-1V40.3h-7.3zm4.6 15.8h-3.1V53h3.1v3.1zm0-4.9h-3.1v-3.1h3.1v3.1zm0-5h-3.1v-3.1h3.1v3.1zM-33 63.9h5.1v-5.3h2.2V40.3H-33v23.6zm2.7-20.8h3.1v3.1h-3.1v-3.1zm0 5h3.1v3.1h-3.1v-3.1zm0 4.9h3.1v3.1h-3.1V53z"/></g></symbol><symbol viewBox="0 0 16 16" id="icon_next-small"><title>next-small</title><path fill="currentColor" d="M4.097 16l-.43-.44L11.453 8 3.668.436 4.098 0l8.234 8"/></symbol><symbol viewBox="-33 35 32 32" id="icon_odezhda_i_obuv"><title>odezhda_i_obuv</title><path fill="currentColor" d="M-1.3 57.2l-10-13 1.9-1.9c.3-.3.5-.7.5-1.1 0-.4-.2-.8-.5-1.1l-3.5-3.5c-2.2-2.2-5.8-2.2-8 0l-3.5 3.5c-.3.3-.5.7-.5 1.1 0 .4.2.8.5 1.1l1.9 1.9-10 13c-.5.7-.4 1.6.2 2.1l1.6 1.3c.6.5 1.6.5 2.1-.2l4.5-5 .4 10.1c0 .8.7 1.5 1.5 1.5h4.2V45.8l-3.8-3.8c-.4-.4-.4-1.1 0-1.5l1.6-1.6c1.8-1.8 4.8-1.8 6.6 0l1.6 1.6c.4.4.4 1.1 0 1.5l-3.8 3.8s-.1 0-.1.1V67h4.3c.8 0 1.5-.7 1.5-1.5l.4-10 4.5 5c.6.6 1.5.7 2.1.2l1.6-1.3c.6-.6.7-1.5.2-2.2z"/></symbol><symbol viewBox="0 0 10 10" id="icon_plus"><title>plus</title><path fill="currentColor" d="M10 4H6V0H4v4H0v2h4v4h2V6h4"/></symbol><symbol viewBox="0 0 16 16" id="icon_previous-small"><title>previous-small</title><path fill="currentColor" d="M3.668 8l8.235-8 .43.437L4.547 8l7.784 7.56-.43.44"/></symbol><symbol viewBox="-33 35 32 32" id="icon_remont_i_stroitelstvo"><title>remont_i_stroitelstvo</title><path fill="currentColor" d="M-14.5 35l-9.1 9.1-.9.9-3.4 3.4c-.4.7-.3 1.6.3 2.2 0 0 1.5 2.8 3 4.3s-3.2 2.6-5.1 4.5c-2.7 2.7-4.2 5.7-2.8 7.1 1.4 1.4 4.3-.1 7.1-2.8 1.9-1.9 3-6.5 4.4-5.1 1.4 1.4 4.3 3 4.3 3 .6.6 1.5.7 2.2.3l.1.1 3.4-3.4.9-.9 9.1-9.1L-14.5 35zm-1.8 3s-.1.1 0 0zm1.9 22.5l-12.1-12.1 2.7-2.7 12.1 12.1-2.7 2.7zm10.3-11.9c-.3 0-2.4-.2-3.4 0-1.9.4-2.8.4-3.2-2.6-.5-3-1.6-2.2-4.7-.7-4.3 2.1-3.7-3.3-.8-7.4l.2-.2 1.5-1.5 12.3 12.3-.5.5s-1.1-.4-1.4-.4z"/></symbol><symbol viewBox="0 0 16 16" id="icon_search"><title>search</title><path fill="currentColor" d="M15.828 15l-3.875-3.875c.99-1.178 1.59-2.695 1.59-4.354C13.542 3.033 10.51 0 6.77 0S0 3.032 0 6.77c0 3.74 3.032 6.772 6.77 6.772 1.66 0 3.178-.598 4.355-1.59L15 15.83c.23.23.6.23.83 0 .227-.228.227-.6-.002-.828zM6.77 12.312c-3.06 0-5.54-2.48-5.54-5.54s2.48-5.54 5.54-5.54c3.062 0 5.54 2.48 5.54 5.54s-2.48 5.54-5.54 5.54z"/></symbol><symbol viewBox="-33 35 32 32" id="icon_services"><title>services</title><g fill="currentColor"><path d="M-12.7 47.4h-8.5c-.7 0-1.3.6-1.3 1.3v8.2c0 .7.6 1.3 1.3 1.3.4 0 .8-.2 1-.5l.5 8c0 .7.6 1.3 1.4 1.3h2.7c.7 0 1.3-.5 1.4-1.3l.5-8c.2.3.6.5 1 .5.7 0 1.3-.6 1.3-1.3v-8.2c0-.7-.6-1.3-1.3-1.3z"/><circle cx="-17" cy="42.8" r="3.6"/><path d="M-25.1 41.4h-6.7c-.6 0-1 .5-1 1v6.5c0 .6.5 1 1 1 .3 0 .6-.2.8-.4l.4 6.3c0 .6.5 1 1.1 1h2.1c.6 0 1-.4 1.1-1l.4-6.3c.2.2.5.4.8.4.6 0 1-.5 1-1v-6.5c.1-.5-.4-1-1-1z"/><circle cx="-28.4" cy="37.9" r="2.9"/><g><path d="M-8.9 41.4h6.7c.6 0 1 .5 1 1v6.5c0 .6-.5 1-1 1-.3 0-.6-.2-.8-.4l-.4 6.3c0 .6-.5 1-1.1 1h-2.1c-.6 0-1-.4-1.1-1l-.4-6.3c-.2.3-.5.5-.8.5-.6 0-1-.5-1-1v-6.5c-.1-.6.4-1.1 1-1.1z"/><circle cx="-5.6" cy="37.9" r="2.9"/></g></g></symbol><symbol viewBox="-33 35 32 32" id="icon_sport"><title>sport</title><g fill="currentColor"><path d="M-15.7 37.6c.4-.5.3-1.5.3-2.4v-.1c-.5 0-1-.1-1.5-.1-2 0-3.9.4-5.7 1 1.3.6 3.2 1.6 5.4 3.2.6-.6 1.2-1.2 1.5-1.6zM-7.6 46.7c-.8.1-1.5.2-2 .4 2.7 4.7 3.8 10.7 4 15.1 2.7-2.7 4.4-6.5 4.6-10.6-1.9-2.2-4.3-5.1-6.6-4.9zM-23.8 42.6c1.9-.4 3.7-1.4 5.1-2.4-3-2.1-5.5-3.1-6-3.3-3.1 1.7-5.6 4.3-7 7.6 1.9-.7 3.9-1.1 5.9-1.5.7-.1 1.4-.2 2-.4z"/><path d="M-12.7 43.1l.5.5c.6.7 1.2 1.4 1.7 2.1.8-.3 1.6-.5 2.7-.6 2.5-.3 4.7 1.7 6.6 3.9-.4-3.3-1.8-6.3-4-8.7-1.2.1-2.4.4-3.8.8-.7.3-2.1 1-3.7 2zM-14.8 51.3c.7-2.2 1.4-3.8 2.9-4.9-.4-.6-.9-1.2-1.4-1.8-.2-.3-.5-.5-.7-.7-5.9 4-14 11.4-14.7 17.8 2.5 2.7 5.8 4.5 9.6 5.1 1.4-2.7 2.7-8.3 3.4-11.6.3-1.6.6-3 .9-3.9z"/><path d="M-21.5 47.8c2.1-1.9 4.2-3.6 6.2-5-.7-.6-1.3-1.1-2-1.6-1.7 1.2-3.8 2.5-6.2 3-.7.1-1.3.3-2 .4-2.5.5-4.9.9-7 2.1-.3 1.3-.5 2.8-.5 4.3 0 3.4 1.1 6.5 2.9 9.1 1.1-4.6 5.2-9.1 8.6-12.3zM-13.9 41.9c1.9-1.2 3.5-2.1 4.6-2.4 1-.3 1.9-.5 2.8-.6-2.1-1.8-4.6-3.1-7.3-3.6.1 1.1.1 2.3-.6 3.2-.3.4-.9 1-1.6 1.6l2.1 1.8zM-13.3 51.8c-.2.8-.6 2.2-.9 3.8-1.1 4.6-2.1 8.8-3.3 11.4h.5c3.7 0 7.2-1.3 9.9-3.4-.1-4.5-1.2-11-3.9-15.8-1.1.8-1.7 2.1-2.3 4z"/></g></symbol><symbol viewBox="3 -5 16 16" id="icon_star"><title>star</title><path class="icon-star" d="M18.5 2l-3.1 3 .7 4.3c0 .3-.1.6-.3.8-.1.1-.3.2-.5.2-.1 0-.3 0-.4-.1l-3.9-2-3.9 2c-.3.1-.6.1-.9 0-.2-.2-.3-.5-.2-.8l.7-4.3-3.1-3c-.2-.2-.3-.6-.2-.9s.3-.5.6-.5L8.3 0l1.9-3.9c.1-.3.4-.5.7-.5.3 0 .6.2.7.5l2 3.9 4.3.6c.3 0 .6.3.7.6.1.3.1.6-.1.8z"/></symbol><symbol viewBox="0 0 14 13" id="icon_teasers-view-list"><title>teasers-view-list</title><path fill="currentColor" d="M0 0h3v3H0zM4 0h9v3H4zM0 5h3v3H0zM4 5h9v3H4zM0 10h3v3H0zM4 10h9v3H4z"/></symbol><symbol viewBox="0 0 14 13" id="icon_teasers-view-tile"><title>teasers-view-tile</title><g fill="currentColor"><path d="M0 0h6v6H0z"/><path d="M0 0h6v6H0zM7 0h6v6H7zM0 7h6v6H0z"/><path d="M0 7h6v6H0zM7 7h6v6H7z"/></g></symbol><symbol viewBox="-33 35 32 32" id="icon_tovari_dlya_detei"><title>tovari_dlya_detei</title><g fill="currentColor"><circle cx="-17.1" cy="45.8" r="1.1"/><path d="M-8.6 60.3c-.5-.3-.4-.8-.4-1.1v-4.5c1.6-.3 5-.3 5-3.4 0-1.5-1.2-2.1-2.8-1.9-1.2.1-1.8.9-3.8.2-.3-.1-1-.7-.6-1.2 1.1-1.3 1.7-3 1.7-4.8 0-.3 0-.9.3-1 1.4-.6 2.3-2 2.3-3.6 0-2.2-1.7-3.9-3.8-3.9-1.1 0-2.2.5-2.9 1.3-.1.1-.2.2-.4.1-1-.5-1.8-.6-2.9-.6-1.2 0-2.1.2-3.1.7-.3.1-.5-.2-.7-.4-.7-.7-1.6-1.1-2.7-1.1-2.1 0-3.8 1.8-3.8 3.9 0 1.7 1 3.1 2.4 3.6.1.1.4.2.4.9.1 1.8.6 3.4 1.6 4.8.4.5 0 1.1-.6 1.3-2.1.6-2.6 0-3.8-.2-1.5-.2-2.8.4-2.8 1.9 0 3 3.4 3.1 5 3.4v4.5c0 .3 0 .8-.6 1.2-1.9.8-4.7.9-4.7 3.6 0 1.6 1.4 3.3 3 3 2-.4 3.1-1.1 6.1-2.5.7-.3 1.1-.1 1.4-.1.9.1 1.8.2 2.8.2 1.1 0 2.1-.1 3.1-.2.2 0 .8-.1 1.3.1 3 1.4 4 2.1 5.9 2.5 1.6.3 3-1.3 3-3 0-2.7-2.9-2.9-4.9-3.7zm-4.8-13.4c0 1.6-1.7 2.9-3.7 2.9-2.1 0-3.7-1.3-3.7-2.9s1.7-2.9 3.7-2.9c2.1 0 3.7 1.3 3.7 2.9zm-9-4.8c0-.7.6-1.3 1.3-1.3s1.3.6 1.3 1.3-.6 1.3-1.3 1.3c-.7.1-1.3-.5-1.3-1.3zm9.9 16.4c0 2.5-2 3.6-4.5 3.6s-4.5-1.1-4.5-3.6v-2.1c0-2.5 2-4.5 4.5-4.5s4.5 2 4.5 4.5v2.1zm-1-15c-.7 0-1.3-.6-1.3-1.3 0-.7.6-1.3 1.3-1.3s1.3.6 1.3 1.3c0 .7-.6 1.3-1.3 1.3z"/></g></symbol><symbol viewBox="-5.664 -5.664 57 57" id="icon_tovary_dlya_doma_i_dachi"><title>tovary_dlya_doma_i_dachi</title><g fill="currentColor"><path d="M37.373 28.012c-.807 0-1.462 2.096-1.462 2.903s.656 1.462 1.463 1.462c.81 0 1.463-.654 1.463-1.462 0-.806-.654-2.903-1.463-2.903zM34.79 34.915c-.806 0-1.46 2.094-1.46 2.9 0 .81.654 1.464 1.46 1.464.81 0 1.464-.655 1.464-1.464s-.654-2.9-1.463-2.9zM32.773 23.777c.697 1.373 2.062 2.314 3.613 2.453.258.022.51-.073.688-.26.177-.188.257-.445.22-.7l-1.03-7.067c-.04-.255-.19-.48-.415-.607-.224-.13-.493-.148-.732-.054-1.448.577-2.484 1.87-2.76 3.386l-8.04 1.177 3.964-5.025c.577-.73.49-1.783-.197-2.41l-6.69-6.1c-.688-.626-1.743-.615-2.417.026l-.148.14c-.168-.194-.346-.38-.54-.556-1.264-1.153-2.902-1.787-4.61-1.787-1.923 0-3.768.814-5.063 2.233-2.5 2.744-2.344 6.978.312 9.538-.318.333-.5.773-.495 1.236.005.492.214.96.58 1.292l8.14 7.423c.364.332.85.496 1.34.458.49-.042.943-.283 1.248-.67l1.98-2.51 11.05-1.616zm-22.56-13.695c.887-.972 2.15-1.53 3.466-1.53 1.17 0 2.29.436 3.155 1.225.155.142.295.294.427.45l-6.775 6.443c-1.876-1.745-2.004-4.69-.273-6.588z"/></g></symbol><symbol viewBox="-33 35 32 32" id="icon_transport"><title>transport</title><path fill="currentColor" d="M-1.2 46.2c-.2-.2-.4-.3-.6-.3h-3.1c-.8-2-1.8-4-2.9-4.8-3.9-2.6-14.4-2.6-18.3 0-1.1.8-2.1 2.7-2.9 4.8h-3.1c-.2 0-.5.1-.6.3-.2.2-.2.4-.2.7l.5 2.2c.1.4.4.7.8.7h.9c-.9 1-1.3 2.3-1.3 3.6 0 1.6.6 3 1.7 4.1v3.1c0 .7.6 1.2 1.2 1.2h2.9c.7 0 1.2-.6 1.2-1.2v-1.3h16v1.3c0 .7.6 1.2 1.2 1.2h2.9c.7 0 1.2-.6 1.2-1.2v-3.1c1.2-1.1 1.7-2.6 1.7-4 0-1.3-.4-2.7-1.4-3.7h1c.4 0 .7-.3.8-.7l.5-2.2c.1-.2.1-.5-.1-.7zm-23.6-3c3.1-2.1 12.5-2.1 15.6 0 .6.4 1.4 2 2.1 4h-19.8c.7-2 1.5-3.6 2.1-4zm-3.7 10.5c0-1.3 1.1-2.4 2.4-2.4 1.3 0 2.4 1.1 2.4 2.4 0 1.3-1.1 2.4-2.4 2.4-1.3 0-2.4-1.1-2.4-2.4zm20.6 2.4c-1.3 0-2.4-1.1-2.4-2.4 0-1.3 1.1-2.4 2.4-2.4 1.3 0 2.4 1.1 2.4 2.4 0 1.3-1.1 2.4-2.4 2.4z"/></symbol><symbol viewBox="0 0 100 100" id="icon_triangle-bg"><title>triangle-bg</title><path fill="#FDC469" d="M100 0L0 100V0"/><path fill="#FBAF5D" d="M100 0v100H0"/></symbol><symbol viewBox="0 0 32 32" id="icon_user"><title>user</title><path fill="currentColor" d="M16 22c4.963 0 9-4.936 9-11S20.962 0 16 0c-2.447 0-4.734 1.174-6.438 3.305C7.91 5.37 7 8.105 7 11c0 6.064 4.037 11 9 11zm0-20c3.86 0 7 4.038 7 9 0 4.963-3.14 9-7 9s-7-4.037-7-9c0-4.962 3.14-9 7-9zm7 18c-.553 0-1 .447-1 1s.447 1 1 1c3.86 0 7 3.14 7 7 0 .55-.45 1-1 1H3c-.55 0-1-.45-1-1 0-3.86 3.14-7 7-7 .553 0 1-.447 1-1s-.447-1-1-1c-4.963 0-9 4.037-9 9 0 1.654 1.346 3 3 3h26c1.654 0 3-1.346 3-3 0-4.962-4.037-9-9-9z"/></symbol><symbol viewBox="0 0 16 16" id="icon_warning"><title>warning</title><g fill="currentColor"><path d="M8 0C3.58 0 0 3.58 0 8c0 4.417 3.58 8 8 8s8-3.582 8-8c0-4.42-3.58-8-8-8zm0 14.695c-3.698 0-6.695-2.997-6.695-6.696S4.302 1.302 8 1.302c3.698 0 6.695 3 6.695 6.698 0 3.698-2.997 6.695-6.695 6.695z"/><path d="M8.85 9.73l.326-6.696H6.84l.326 6.696M8.007 10.468c-.783 0-1.33.548-1.33 1.347 0 .768.532 1.344 1.3 1.344h.03c.797 0 1.315-.577 1.315-1.345-.013-.8-.53-1.347-1.315-1.347z"/></g></symbol><symbol viewBox="-33 35 32 32" id="icon_white-goods"><title>white-goods</title><g fill="currentColor"><circle cx="-27.9" cy="39.7" r=".8"/><circle cx="-25.4" cy="39.7" r=".8"/><circle cx="-11.1" cy="39.7" r=".8"/><circle cx="-8.6" cy="39.7" r=".8"/><circle cx="-6.1" cy="39.7" r=".8"/><path d="M-17 61.1c3.8 0 6.9-3.1 6.9-6.9 0-3.8-3.1-6.9-6.9-6.9s-6.9 3.1-6.9 6.9c0 3.8 3.1 6.9 6.9 6.9zm0-12.5c3 0 5.5 2.5 5.5 5.5v.1c-.2.2-.5.4-1 .4-.6 0-.9-.3-1.1-.5-.3-.2-.5-.5-1.1-.5-.5 0-.8.2-1.1.5-.3.2-.6.5-1.1.5s-.9-.3-1.1-.5c-.3-.2-.5-.5-1.1-.5-.5 0-.8.2-1.1.5-.3.2-.6.5-1.1.5-.5 0-.8-.2-1.1-.4v-.1c-.1-3 2.4-5.5 5.4-5.5z"/><path d="M-30.5 67h27V41.3h-27V67zM-17 45.6c4.7 0 8.5 3.8 8.5 8.5s-3.8 8.5-8.5 8.5-8.5-3.8-8.5-8.5 3.8-8.5 8.5-8.5zM-30.5 35h27v2.8h-27z"/></g></symbol><symbol viewBox="-33 35 32 32" id="icon_work"><title>work</title><g fill="currentColor"><path d="M-15.5 41.5c.9 0 1.5-.6 1.6-1.5l.4-3.5c0-.8-.7-1.5-1.6-1.5h-3.8c-.9 0-1.6.7-1.6 1.5l.4 3.5c.1 1 .7 1.5 1.6 1.5.7 0 .8-.2 1.6-.2s.9.2 1.4.2M-13.6 51.2l-7.5 4-.2 1.2 7.9-4.1M-14.3 46.8l-5.9 3-.8 4.7 7.3-3.9M-20.1 49.2l5.7-3-.2-1-5.3 2.8M-21.8 61.6l.9 1 8.5-4.5-.8-4.7-8.3 4.4-.3 1.6c0 .3-.5 1.6 0 2.2M-19.2 64.6l1.6 1.9c.6.6.7.6 1.2 0l4.2-4.9c.2-.2.3-.5.3-.8l-7.3 3.8zM-14.8 44.1l-.3-1.8c-.6-.6-3.3-.6-3.9 0l-.7 4.3 4.9-2.5zM-12.2 59.4v-.1l-7.9 4.2.6.7 7.6-4c-.2-.3-.3-.6-.3-.8"/></g></symbol></svg>