<svg xmlns="http://www.w3.org/2000/svg"><symbol viewBox="0 0 37.286 37.287" id="icon_star_yellow"><title>star_yellow</title><path fill="#FBB568" d="M36.683 16.34l-7.567 7.376 1.786 10.417c.128.75-.182 1.51-.797 1.957-.35.253-.763.382-1.176.382-.32 0-.64-.076-.932-.23l-9.355-4.917-9.355 4.918c-.674.354-1.49.295-2.107-.15-.614-.448-.923-1.206-.794-1.957L8.173 23.72l-7.57-7.38c-.546-.53-.74-1.326-.507-2.05.236-.724.86-1.25 1.615-1.36l10.46-1.522 4.68-9.478c.335-.684 1.03-1.116 1.792-1.116.763 0 1.456.432 1.793 1.115l4.68 9.477 10.462 1.52c.752.11 1.38.638 1.61 1.362.237.723.04 1.518-.504 2.05z"/></symbol><symbol viewBox="0 0 32 32" id="icon_user"><title>user</title><path fill="currentColor" d="M16 22c4.963 0 9-4.936 9-11S20.962 0 16 0c-2.447 0-4.734 1.174-6.438 3.305C7.91 5.37 7 8.105 7 11c0 6.064 4.037 11 9 11zm0-20c3.86 0 7 4.038 7 9 0 4.963-3.14 9-7 9s-7-4.037-7-9c0-4.962 3.14-9 7-9zm7 18c-.553 0-1 .447-1 1s.447 1 1 1c3.86 0 7 3.14 7 7 0 .55-.45 1-1 1H3c-.55 0-1-.45-1-1 0-3.86 3.14-7 7-7 .553 0 1-.447 1-1s-.447-1-1-1c-4.963 0-9 4.037-9 9 0 1.654 1.346 3 3 3h26c1.654 0 3-1.346 3-3 0-4.962-4.037-9-9-9z"/></symbol></svg>