<?xml version="1.0" encoding="utf-8"?>
<!-- Generator: Adobe Illustrator 18.1.1, SVG Export Plug-In . SVG Version: 6.00 Build 0)  -->
<svg version="1.1" id="Layer_1" xmlns="http://www.w3.org/2000/svg" xmlns:xlink="http://www.w3.org/1999/xlink" x="0px" y="0px"
	 viewBox="-33 35 32 32" enable-background="new -33 35 32 32" xml:space="preserve">
<g>
	<g>
		<path fill="currentColor" d="M-6.4,65.5c-0.2-1.3-1.6-1.4-2.4-1.3c-0.9-3.3,2.2-8.3,2.4-9.4c0.2-1.3-0.9-8.6-1-12.3
			c-0.1-3.8-5.7-8-6.6-7.3c-0.9,1,1.3,2.4,0.1,3.5c-1.1,1.1-1.4,1.9-2.3,3.2c-2.2,3.3,3.7,3.3,3.7,3.3s-4.6,3.4-5.6,5.1
			c-0.9,1.6-1.3,3.3-2.5,4.8c-2.6,3.4-2,9.3-2,9.3s-4.9-1.6-2.2-7.2c2-4.3,3.1-10.5-1.6-8.9c-1.8,0.6,0.4,1.9,0.8,2.4
			c1.3,1.4,0.2,3.8-0.6,5.1c-2,3.7-2.8,7.5,1.5,9.9c1.9,1.1,4.5,1.3,7.1,1.3l6.6,0C-8.7,67.1-6.3,66.7-6.4,65.5z"/>
	</g>
</g>
</svg>
