<?xml version="1.0" encoding="utf-8"?>
<!-- Generator: Adobe Illustrator 18.1.1, SVG Export Plug-In . SVG Version: 6.00 Build 0)  -->
<svg version="1.1" id="Layer_1" xmlns="http://www.w3.org/2000/svg" xmlns:xlink="http://www.w3.org/1999/xlink" x="0px" y="0px"
	 viewBox="-33 35 32 32" enable-background="new -33 35 32 32" xml:space="preserve">
<g>
	<path fill="currentColor" d="M-10.5,50.4L-10.5,50.4c0.6,0,1-0.1,1.4-0.3c0.5-0.3,0.8-0.6,1-1c0.2-0.4,0.2-0.7,0-1.1
		c-0.2-0.4-0.6-0.6-1.1-0.6c-0.4,0-0.7,0.1-1.1,0.3c-1,0.5-1.5,2.1-1.5,2.2l-0.1,0.2l0.3,0.1C-11.8,50.3-11.2,50.4-10.5,50.4z"/>
	<path fill="currentColor" d="M-17,51.9L-17,51.9c1.1,0,2.2-0.9,2.3-0.9l0.2-0.2l-0.2-0.2c0-0.1-1.1-1.3-2.3-1.4c-0.1,0-0.2,0-0.4,0
		c-1.1,0-1.5,0.6-1.6,1.1c0,0.4,0.1,0.7,0.4,1c0.3,0.3,0.7,0.4,1.3,0.5C-17.2,51.9-17.1,51.9-17,51.9z"/>
	<path fill="currentColor" d="M-12,54.5c0.6-5.6-2-9.5-3.4-11c0.3-0.3,0.6-0.6,0.8-1c0.9-1.8,0.2-4.1-1.6-5c-0.7-0.4-1.6-0.5-2.3-0.4
		c-0.3-0.7-0.9-1.3-1.6-1.7c-1.8-0.9-4.1-0.2-5,1.6c-0.4,0.7-0.5,1.6-0.4,2.3c-0.7,0.3-1.3,0.9-1.7,1.6c-0.9,1.8-0.2,4.1,1.6,5
		c0.7,0.4,1.6,0.5,2.3,0.4c0.3,0.7,0.9,1.3,1.6,1.7c1.8,0.9,4.1,0.2,5-1.6c0.1-0.3,0.2-0.6,0.3-0.8c1.2,1.6,2.8,4.7,2.3,8.9h-6.7
		l3,12.5h8.4l3-12.5H-12L-12,54.5z M-20.4,44.2v0.4c0,0.3-0.2,0.5-0.5,0.5c-0.3,0-0.5-0.2-0.5-0.5v-0.4c-0.5-0.1-0.9-0.3-1.2-0.7
		c-0.2-0.2-0.2-0.5,0-0.7c0.2-0.2,0.5-0.2,0.7,0c0.2,0.2,0.6,0.4,1,0.4c0.4,0,0.8-0.1,0.8-0.4c0-0.3-0.2-0.4-0.9-0.6
		c-0.7-0.2-1.6-0.5-1.6-1.6c0-0.7,0.5-1.2,1.2-1.3v-0.5c0-0.3,0.2-0.5,0.5-0.5c0.3,0,0.5,0.2,0.5,0.5v0.4c0.4,0,0.8,0.2,1.1,0.4
		c0.2,0.1,0.3,0.4,0.1,0.7c-0.1,0.2-0.4,0.3-0.7,0.1c-0.2-0.1-0.6-0.2-0.9-0.2c-0.4,0-0.9,0.1-0.9,0.5c0,0.4,0.2,0.5,1,0.7
		c0.6,0.2,1.6,0.5,1.6,1.6C-19.1,43.6-19.6,44.1-20.4,44.2z M-10.4,63.6l-0.3,1.4c-0.1,0.2-0.2,0.4-0.5,0.4c0,0-0.1,0-0.1,0
		c-0.3-0.1-0.4-0.3-0.4-0.6l0.3-1.4c0.1-0.3,0.3-0.4,0.6-0.4C-10.5,63.1-10.4,63.3-10.4,63.6z M-9.8,60.9c-0.1,0.2-0.2,0.4-0.5,0.4
		c0,0-0.1,0-0.1,0c-0.3-0.1-0.4-0.3-0.4-0.6l0.6-2.8c0.1-0.3,0.3-0.4,0.6-0.4c0.3,0.1,0.4,0.3,0.4,0.6L-9.8,60.9z"/>
</g>
</svg>
