<?xml version="1.0" encoding="utf-8"?>
<!-- Generator: Adobe Illustrator 18.1.1, SVG Export Plug-In . SVG Version: 6.00 Build 0)  -->
<svg version="1.1" id="Layer_1" xmlns="http://www.w3.org/2000/svg" xmlns:xlink="http://www.w3.org/1999/xlink" x="0px" y="0px"
	 viewBox="-33 35 32 32" enable-background="new -33 35 32 32" xml:space="preserve">
<g>
	<path fill="currentColor" d="M-1.3,57.2l-10-13l0,0l1.9-1.9c0.3-0.3,0.5-0.7,0.5-1.1c0-0.4-0.2-0.8-0.5-1.1l-3.5-3.5
		c-2.2-2.2-5.8-2.2-8,0l-3.5,3.5c-0.3,0.3-0.5,0.7-0.5,1.1c0,0.4,0.2,0.8,0.5,1.1l1.9,1.9l0,0l-10,13c-0.5,0.7-0.4,1.6,0.2,2.1
		l1.6,1.3c0.6,0.5,1.6,0.5,2.1-0.2l4.5-5l0.4,10.1c0,0.8,0.7,1.5,1.5,1.5h4.2V45.8c0,0,0,0,0,0l-3.8-3.8c-0.4-0.4-0.4-1.1,0-1.5
		l1.6-1.6c1.8-1.8,4.8-1.8,6.6,0l1.6,1.6c0.4,0.4,0.4,1.1,0,1.5l-3.8,3.8c0,0-0.1,0-0.1,0.1V67h4.3c0.8,0,1.5-0.7,1.5-1.5l0.4-10
		l0,0l4.5,5c0.6,0.6,1.5,0.7,2.1,0.2l1.6-1.3C-0.9,58.8-0.8,57.9-1.3,57.2z"/>
</g>
</svg>
