<?xml version="1.0" encoding="utf-8"?>
<!-- Generator: Adobe Illustrator 18.1.1, SVG Export Plug-In . SVG Version: 6.00 Build 0)  -->
<svg version="1.1" id="Layer_1" xmlns="http://www.w3.org/2000/svg" xmlns:xlink="http://www.w3.org/1999/xlink" x="0px" y="0px"
	 viewBox="-33 35 32 32" enable-background="new -33 35 32 32" xml:space="preserve">
<g>
	<g>
		<polygon fill="currentColor" points="-4.4,35.4 -8.5,36.8 -8.2,37.7 -20.5,41.9 -20,43.4 -30.9,47.2 -30.4,48.8 -33,49.7 -32.3,51.6 
			-29.7,50.7 -29.2,52.4 -18.2,48.6 -17.7,50.1 -5.4,45.9 -5.1,46.8 -1,45.4 		"/>
		<path fill="currentColor" d="M-13.5,54v-2.4h-1.9c-0.2-0.3-0.6-0.6-1-0.7v0l0,0c-0.2-0.1-0.4-0.1-0.7-0.1c-0.7,0-1.4,0.3-1.7,0.8h-1.9
			V54h1.9l-9.6,12.6h2l8.6-11.4v11.3h1.4V55.2l8.6,11.3h2.5l-10-12.6H-13.5L-13.5,54z"/>
	</g>
</g>
</svg>
