<?xml version="1.0" encoding="utf-8"?>
<!-- Generator: Adobe Illustrator 16.0.3, SVG Export Plug-In . SVG Version: 6.00 Build 0)  -->
<!DOCTYPE svg PUBLIC "-//W3C//DTD SVG 1.1//EN" "http://www.w3.org/Graphics/SVG/1.1/DTD/svg11.dtd">
<svg version="1.1" id="Layer_1" xmlns="http://www.w3.org/2000/svg" xmlns:xlink="http://www.w3.org/1999/xlink" x="0px" y="0px"
	 width="32px" height="32px" viewBox="0 0 32 32" enable-background="new 0 0 32 32" xml:space="preserve">
<g>
	<path fill="#FFFFFF" d="M29.691,2.925H2.309C1.037,2.925,0,3.961,0,5.234v16.276c0,1.272,1.037,2.309,2.309,2.309h10.583v2.175
		h-2.446c-0.607,0-1.099,0.492-1.099,1.101v0.88c0,0.605,0.491,1.101,1.099,1.101h11.105c0.609,0,1.101-0.495,1.101-1.101v-0.88
		c0-0.608-0.491-1.101-1.101-1.101h-2.443v-2.175h10.583c1.272,0,2.309-1.036,2.309-2.309V5.234C32,3.961,30.964,2.925,29.691,2.925
		z M28.978,21.043H3.023V5.701h25.954V21.043z"/>
</g>
</svg>
