<?xml version="1.0" encoding="utf-8"?>
<!-- Generator: Adobe Illustrator 16.0.3, SVG Export Plug-In . SVG Version: 6.00 Build 0)  -->
<!DOCTYPE svg PUBLIC "-//W3C//DTD SVG 1.1//EN" "http://www.w3.org/Graphics/SVG/1.1/DTD/svg11.dtd">
<svg version="1.1" id="Layer_1" xmlns="http://www.w3.org/2000/svg" xmlns:xlink="http://www.w3.org/1999/xlink" x="0px" y="0px"
	 width="16px" height="16px" viewBox="0 0 16 16" enable-background="new 0 0 16 16" xml:space="preserve">
<g>
	<path fill="currentColor" d="M8,3.52C2.751,3.52,0,7.387,0,8s2.751,4.48,8,4.48c5.248,0,8-3.867,8-4.48S13.248,3.52,8,3.52z M8,11.446
		c-1.963,0-3.556-1.543-3.556-3.446S6.037,4.554,8,4.554c1.963,0,3.556,1.543,3.556,3.446S9.963,11.446,8,11.446z M9.777,8
		c0,0.951-0.796,1.723-1.777,1.723C7.018,9.723,6.222,8.951,6.222,8c0-0.952,0.796-1.723,1.778-1.723c0.531,0-0.326,1.366,0,1.723
		C8.277,8.304,9.777,7.563,9.777,8z"/>
</g>
</svg>
