<?xml version="1.0" encoding="utf-8"?>
<!-- Generator: Adobe Illustrator 18.1.1, SVG Export Plug-In . SVG Version: 6.00 Build 0)  -->
<svg version="1.1" id="Layer_1" xmlns="http://www.w3.org/2000/svg" xmlns:xlink="http://www.w3.org/1999/xlink" x="0px" y="0px"
	 viewBox="-33 35 32 32" enable-background="new -33 35 32 32" xml:space="preserve">
<g>
	<g id="Layer_5_41_">
		<g>
			<circle fill="currentColor" cx="-17.1" cy="45.8" r="1.1"/>
			<path fill="currentColor" d="M-8.6,60.3C-9.1,60-9,59.5-9,59.2v-4.5c1.6-0.3,5-0.3,5-3.4c0-1.5-1.2-2.1-2.8-1.9
				c-1.2,0.1-1.8,0.9-3.8,0.2c-0.3-0.1-1-0.7-0.6-1.2c1.1-1.3,1.7-3,1.7-4.8c0-0.3,0-0.9,0.3-1c1.4-0.6,2.3-2,2.3-3.6
				c0-2.2-1.7-3.9-3.8-3.9c-1.1,0-2.2,0.5-2.9,1.3c-0.1,0.1-0.2,0.2-0.4,0.1c-1-0.5-1.8-0.6-2.9-0.6c-1.2,0-2.1,0.2-3.1,0.7
				c-0.3,0.1-0.5-0.2-0.7-0.4c-0.7-0.7-1.6-1.1-2.7-1.1c-2.1,0-3.8,1.8-3.8,3.9c0,1.7,1,3.1,2.4,3.6c0.1,0.1,0.4,0.2,0.4,0.9
				c0.1,1.8,0.6,3.4,1.6,4.8c0.4,0.5,0,1.1-0.6,1.3c-2.1,0.6-2.6,0-3.8-0.2c-1.5-0.2-2.8,0.4-2.8,1.9c0,3,3.4,3.1,5,3.4v4.5
				c0,0.3,0,0.8-0.6,1.2c-1.9,0.8-4.7,0.9-4.7,3.6c0,1.6,1.4,3.3,3,3c2-0.4,3.1-1.1,6.1-2.5c0.7-0.3,1.1-0.1,1.4-0.1
				c0.9,0.1,1.8,0.2,2.8,0.2c1.1,0,2.1-0.1,3.1-0.2c0.2,0,0.8-0.1,1.3,0.1c3,1.4,4,2.1,5.9,2.5c1.6,0.3,3-1.3,3-3
				C-3.7,61.3-6.6,61.1-8.6,60.3z M-13.4,46.9c0,1.6-1.7,2.9-3.7,2.9c-2.1,0-3.7-1.3-3.7-2.9s1.7-2.9,3.7-2.9
				C-15,44-13.4,45.3-13.4,46.9z M-22.4,42.1c0-0.7,0.6-1.3,1.3-1.3s1.3,0.6,1.3,1.3s-0.6,1.3-1.3,1.3
				C-21.8,43.5-22.4,42.9-22.4,42.1z M-12.5,58.5c0,2.5-2,3.6-4.5,3.6c-2.5,0-4.5-1.1-4.5-3.6v-2.1c0-2.5,2-4.5,4.5-4.5
				s4.5,2,4.5,4.5C-12.5,56.4-12.5,58.5-12.5,58.5z M-13.5,43.5c-0.7,0-1.3-0.6-1.3-1.3c0-0.7,0.6-1.3,1.3-1.3s1.3,0.6,1.3,1.3
				C-12.2,42.9-12.8,43.5-13.5,43.5z"/>
		</g>
	</g>
</g>
</svg>
