<?xml version="1.0" encoding="utf-8"?>
<!-- Generator: Adobe Illustrator 18.1.1, SVG Export Plug-In . SVG Version: 6.00 Build 0)  -->
<svg version="1.1" id="Layer_1" xmlns="http://www.w3.org/2000/svg" xmlns:xlink="http://www.w3.org/1999/xlink" x="0px" y="0px"
	 viewBox="-33 35 32 32" enable-background="new -33 35 32 32" xml:space="preserve">
<g>
	<g>
		<path fill="currentColor" d="M-13.1,64.4h-0.9c-0.7,0-1.2-0.6-1.2-1.2v-8.4c0-1-0.8-1.8-1.8-1.8s-1.8,0.8-1.8,1.8v8.4
			c0,0.7-0.6,1.2-1.2,1.2h-0.9c-1.1,0-2.1,0.9-2.1,2.1V67h12v-0.6C-11,65.3-11.9,64.4-13.1,64.4z"/>
		<path fill="currentColor" d="M-3.9,46.8c0,0-5.4-10.7-6.1-11.3c-0.6-0.6-1.5-0.5-1.5-0.5h-11.4c0,0-0.9-0.1-1.5,0.5
			c-0.7,0.6-5.7,11.3-5.7,11.3c-0.6,1.1-1.2,3-0.4,3.7c0.8,0.6,2.7,0.4,3.7,0.4c1.1,0,2,0.8,2.1,1.7c0.1,1-0.2,1.9-0.6,2.3
			c-0.2,0.2-0.3,0.5-0.3,0.9c0,0.8,0.7,1.5,1.5,1.5c0.8,0,1.5-0.7,1.5-1.5c0-0.3-0.1-0.6-0.3-0.9c-0.3-0.4-0.6-1.3-0.5-2.3
			c0.1-1,1.2-1.7,2.5-1.7h13.5c1.3,0,3.1-0.1,3.8-0.7C-2.7,49.7-3.2,47.9-3.9,46.8z"/>
	</g>
</g>
</svg>
