<?xml version="1.0" encoding="utf-8"?>
<!-- Generator: Adobe Illustrator 18.1.1, SVG Export Plug-In . SVG Version: 6.00 Build 0)  -->
<svg version="1.1" id="Layer_1" xmlns="http://www.w3.org/2000/svg" xmlns:xlink="http://www.w3.org/1999/xlink" x="0px" y="0px"
	 viewBox="-33 35 32 32" enable-background="new -33 35 32 32" xml:space="preserve">
<g>
	<g id="c34_present">
		<polygon fill="currentColor" points="-21.9,58.5 -23.2,56.5 -25.8,57 -22.3,50.9 -29.1,50.9 -29.1,67 -17.6,67 -17.6,50.9 		"/>
		<path fill="currentColor" d="M-3,43.2h-7.6c0.4-0.2,0.8-0.5,1.2-0.7c1.4-1,2.1-2.2,2.1-3.4c0-1-0.5-2.4-1.2-3c-0.7-0.6-1.6-1-2.6-1
			c-1,0-2,0.4-2.9,0.9c-1.3,0.8-2.2,2.7-2.9,4c0,0.1-0.1,0.1-0.1,0.2c-0.3-0.5-0.6-1.6-0.9-2.1c-0.6-0.8-1.3-1.6-2.1-2.2
			c-0.8-0.6-1.8-0.9-2.8-0.9c-1,0-2,0.4-2.7,1.1c-0.7,0.7-1.2,2.2-1.2,3.2c0,0.6,0.2,1.3,0.6,1.9c0.5,0.7,1.2,1.4,2.3,1.9h-7l0,6.4
			h13.2v-6.4h1.6v6.4H-3L-3,43.2z M-23.5,41.1c-0.5-0.3-0.9-0.7-1-1c-0.2-0.3-0.3-0.8-0.3-1.1c0-0.4,0.2-1.2,0.6-1.5
			c0.4-0.4,0.9-0.6,1.3-0.6h0c0.6,0,1.2,0.2,1.8,0.6c0.9,0.6,1.7,2.1,2.3,3.3c0.3,0.6,0.5,1.2,0.7,1.8
			C-20.8,42.4-22.5,41.8-23.5,41.1z M-14.5,39.8c0.5-0.7,1-1.8,1.6-2.2c0.6-0.4,1.2-0.6,1.8-0.6h0c0.5,0,1,0.2,1.3,0.5
			c0.3,0.3,0.5,0.8,0.5,1.2c0,0.4-0.2,1.4-1.3,2.2c-1,0.7-2.7,1.4-5.3,1.9C-15.6,41.7-15.1,40.7-14.5,39.8z"/>
		<polygon fill="currentColor" points="-8.2,57 -10.8,56.5 -12,58.6 -16.3,51 -16.3,67 -4.9,67 -4.9,50.9 -11.6,50.9 		"/>
		<path fill="currentColor" d="M-16.3,50.9"/>
	</g>
	<g id="Capa_1_195_">
	</g>
</g>
</svg>
