<?xml version="1.0" encoding="utf-8"?>
<!-- Generator: Adobe Illustrator 18.1.1, SVG Export Plug-In . SVG Version: 6.00 Build 0)  -->
<svg version="1.1" id="Layer_1" xmlns="http://www.w3.org/2000/svg" xmlns:xlink="http://www.w3.org/1999/xlink" x="0px" y="0px"
	 viewBox="-33 35 32 32" enable-background="new -33 35 32 32" xml:space="preserve">
<path fill="currentColor" d="M-1.2,37.4l-2.2-2.2c-0.3-0.3-0.7-0.3-1.1,0l-3.6,3c-0.2,0.1-0.3,0.3-0.3,0.6c0,0.2,0.1,0.4,0.2,0.6l0.2,0.2
	l-8.8,8.8l-1.1-1.1c-0.6-0.6-1.4-1-2.3-1c-0.8,0-1.6,0.3-2.2,0.8c-0.1,0.1-0.1,0.1-0.2,0.2c-0.4,0.4-0.8,0.9-1,1.4
	c-0.4,0.7-1,1.1-1.8,1.1c-2.1,0.1-4,1-5.5,2.5c-3,3.2-2.8,8.6,0.5,11.9c1.7,1.7,4,2.7,6.4,2.7l0,0c2.2,0,4.3-0.8,5.8-2.4
	c1.4-1.4,2.2-3.3,2.3-5.3c0-0.8,0.4-1.4,1.1-1.7c0.6-0.3,1.2-0.7,1.6-1.2c0,0,0,0,0,0c1.2-1.3,1.1-3.3-0.1-4.5l-1.1-1.1l8.8-8.8
	l0.2,0.2c0.1,0.1,0.3,0.2,0.6,0.2c0,0,0,0,0,0c0.2,0,0.4-0.1,0.6-0.3l3-3.6C-0.9,38.2-1,37.7-1.2,37.4z M-18.6,55.1
	c0,0.7-0.3,1.3-0.7,1.8c-0.5,0.5-1.1,0.7-1.8,0.7s-1.3-0.3-1.8-0.7c-0.5-0.5-0.7-1.1-0.7-1.8c0-0.7,0.3-1.3,0.7-1.8
	c0.5-0.5,1.1-0.7,1.8-0.7s1.3,0.3,1.8,0.7C-18.9,53.8-18.6,54.4-18.6,55.1z M-23.1,62.9c-0.2,0.2-0.4,0.2-0.6,0.2
	c-0.2,0-0.4-0.1-0.6-0.2l-4.7-4.7c-0.3-0.3-0.3-0.8,0-1.1c0.3-0.3,0.8-0.3,1.1,0l4.7,4.7C-22.8,62.1-22.8,62.6-23.1,62.9z"/>
</svg>
