<?xml version="1.0" encoding="utf-8"?>
<!-- Generator: Adobe Illustrator 15.0.2, SVG Export Plug-In . SVG Version: 6.00 Build 0)  -->
<!DOCTYPE svg PUBLIC "-//W3C//DTD SVG 1.1//EN" "http://www.w3.org/Graphics/SVG/1.1/DTD/svg11.dtd">
<svg version="1.1" id="Capa_1" xmlns="http://www.w3.org/2000/svg" xmlns:xlink="http://www.w3.org/1999/xlink" x="0px" y="0px"
	 width="57px" height="57px" viewBox="0 0 57 57" enable-background="new 0 0 57 57" xml:space="preserve">
<g>
	<g>
		<path fill="currentColor" d="M39.157,15.904c-0.668-0.991-1.518-1.812-2.435-2.457c-0.465-0.32-0.938-0.59-1.441-0.824
			c-0.25-0.106-0.565-0.251-0.766-0.317l-0.326-0.115l-0.213-0.072l-0.19-0.053c-1.009-0.29-2.085-0.445-3.188-0.381
			c-1.089,0.083-2.285-0.048-3.551,0.187c-1.259,0.218-2.416,1.012-3.055,2.201c-0.598,1.195-1.027,3.777,0.353,4.661
			c1.028,0.526,2.821-0.118,3.479-0.419c0.625-0.307,0.952-0.767,1.329-1.465c0.373-0.671,0.963-1.336,1.689-1.408
			c0.716-0.089,1.47-0.026,2.229,0.148l0.145,0.031c-0.05-0.018,0.078,0.021,0.11,0.031l0.331,0.097
			c0.239,0.066,0.344,0.126,0.527,0.184c0.344,0.138,0.696,0.311,1.02,0.512c0.646,0.405,1.238,0.912,1.711,1.547
			c0.973,1.246,1.467,2.961,1.453,4.71c-0.021,1.751-0.542,3.524-1.466,4.996c-0.117,0.181-0.23,0.369-0.365,0.536l-0.181,0.243
			l-0.231,0.281c-0.25,0.296-0.568,0.626-0.877,0.9c-0.629,0.565-1.331,1.035-2.079,1.416c-1.051,0.53-2.188,0.872-3.367,1.084
			c5.675-2.424,4.939-9.221,4.939-9.221c-0.304-0.973-4.052-1.74-8.625-1.74c-4.577,0-8.323,0.769-8.628,1.74h-0.012
			c0,0-0.003,0.03-0.003,0.071c-0.004,0.019-0.004,0.038-0.004,0.058c0,0.01,0,0.02,0,0.029c0,0.038,0,0.072,0,0.092
			c0,4.353,2.462,8.071,5.88,9.399c-0.147,0.028-0.304,0.062-0.514,0.15c-0.17,0.087-0.513,0.215-0.794,0.7l0.009-0.019
			c-0.202,0.347-0.208,0.472-0.257,0.695c-0.032,0.208-0.022,0.396,0,0.587c0.056,0.349,0.186,0.615,0.308,0.806
			c0.121,0.188,0.246,0.326,0.356,0.427c0.123,0.126,0.216,0.182,0.325,0.268c0.11,0.087,0.197,0.127,0.296,0.189
			c0.101,0.062,0.193,0.107,0.282,0.151c0.184,0.095,0.361,0.164,0.535,0.23c0.392,0.147,0.774,0.261,1.148,0.355v0.372
			c-2.169,0.477-3.889,2.376-4.409,4.815c-0.004,0.008-0.008,0.026-0.008,0.036c0,0.007-0.003,0.032-0.006,0.032h0.004
			c-0.001,0-0.004,0.01-0.004,0.02c0,0.703,2.453,1.269,5.48,1.269c3.027,0,5.479-0.563,5.479-1.268
			c0-0.011-0.003-0.021-0.005-0.021h0.035c-0.298-1.461-1.028-2.734-2.026-3.628c0.111-0.176,0.218-0.404,0.279-0.717
			c0.107-0.474-0.014-1.002-0.158-1.284c-0.152-0.321-0.301-0.478-0.433-0.627c-0.138-0.143-0.263-0.243-0.381-0.333
			c-0.472-0.336-0.87-0.521-1.273-0.702c-0.026-0.01-0.055-0.019-0.079-0.031c0.297-0.012,0.593-0.028,0.892-0.053
			c1.892-0.148,3.845-0.533,5.686-1.431c0.919-0.446,1.808-1.022,2.619-1.729c0.41-0.36,0.772-0.721,1.163-1.168l0.236-0.279
			l0.264-0.349c0.174-0.215,0.328-0.45,0.49-0.68c1.252-1.859,2.035-4.168,2.14-6.578C41.127,20.397,40.513,17.876,39.157,15.904z
			 M26.115,24.854c-3.724,0-6.744-0.599-6.744-1.334c0-0.737,3.02-1.336,6.744-1.336c3.725,0,6.744,0.599,6.744,1.336
			C32.858,24.256,29.837,24.854,26.115,24.854z"/>
	</g>
</g>
</svg>
