<?xml version="1.0" encoding="utf-8"?>
<!-- Generator: Adobe Illustrator 18.1.1, SVG Export Plug-In . SVG Version: 6.00 Build 0)  -->
<svg version="1.1" id="Capa_1" xmlns="http://www.w3.org/2000/svg" xmlns:xlink="http://www.w3.org/1999/xlink" x="0px" y="0px"
	 viewBox="-21 22 57 57" enable-background="new -21 22 57 57" xml:space="preserve">
<g>
	<g>
		<path fill="currentColor" d="M24.8,30c-1.2-1.7-2.7-3.2-4.3-4.3c-0.8-0.6-1.6-1-2.5-1.4c-0.4-0.2-1-0.4-1.3-0.6l-0.6-0.2l-0.4-0.1l-0.3-0.1
			c-1.8-0.5-3.6-0.8-5.6-0.7c-1.9,0.1-4-0.1-6.2,0.3c-2.2,0.4-4.2,1.8-5.3,3.8c-1,2.1-1.8,6.6,0.6,8.1c1.8,0.9,4.9-0.2,6.1-0.7
			c1.1-0.5,1.7-1.3,2.3-2.6c0.7-1.2,1.7-2.3,2.9-2.5c1.3-0.2,2.6,0,3.9,0.3l0.3,0.1c-0.1,0,0.1,0,0.2,0.1l0.6,0.2
			c0.4,0.1,0.6,0.2,0.9,0.3c0.6,0.2,1.2,0.5,1.8,0.9c1.1,0.7,2.2,1.6,3,2.7c1.7,2.2,2.6,5.2,2.5,8.2c0,3.1-0.9,6.2-2.6,8.7
			c-0.2,0.3-0.4,0.6-0.6,0.9l-0.3,0.4l-0.4,0.5c-0.4,0.5-1,1.1-1.5,1.6c-1.1,1-2.3,1.8-3.6,2.5c-1.8,0.9-3.8,1.5-5.9,1.9
			c9.9-4.2,8.6-16.1,8.6-16.1c-0.5-1.7-7.1-3-15.1-3c-8,0-14.5,1.3-15.1,3h0c0,0,0,0.1,0,0.1c0,0,0,0.1,0,0.1c0,0,0,0,0,0.1
			c0,0.1,0,0.1,0,0.2c0,7.6,4.3,14.1,10.3,16.4c-0.3,0-0.5,0.1-0.9,0.3c-0.3,0.2-0.9,0.4-1.4,1.2l0,0c-0.4,0.6-0.4,0.8-0.4,1.2
			c-0.1,0.4,0,0.7,0,1c0.1,0.6,0.3,1.1,0.5,1.4c0.2,0.3,0.4,0.6,0.6,0.7c0.2,0.2,0.4,0.3,0.6,0.5c0.2,0.2,0.3,0.2,0.5,0.3
			c0.2,0.1,0.3,0.2,0.5,0.3c0.3,0.2,0.6,0.3,0.9,0.4c0.7,0.3,1.4,0.5,2,0.6v0.6c-3.8,0.8-6.8,4.1-7.7,8.4c0,0,0,0,0,0.1
			c0,0,0,0.1,0,0.1h0c0,0,0,0,0,0c0,1.2,4.3,2.2,9.6,2.2s9.6-1,9.6-2.2c0,0,0,0,0,0h0.1c-0.5-2.6-1.8-4.8-3.5-6.3
			c0.2-0.3,0.4-0.7,0.5-1.3c0.2-0.8,0-1.7-0.3-2.2c-0.3-0.6-0.5-0.8-0.8-1.1c-0.2-0.2-0.5-0.4-0.7-0.6c-0.8-0.6-1.5-0.9-2.2-1.2
			c0,0-0.1,0-0.1-0.1c0.5,0,1,0,1.6-0.1c3.3-0.3,6.7-0.9,9.9-2.5c1.6-0.8,3.2-1.8,4.6-3c0.7-0.6,1.3-1.3,2-2l0.4-0.5l0.5-0.6
			c0.3-0.4,0.6-0.8,0.9-1.2c2.2-3.2,3.6-7.3,3.7-11.5C28.2,37.8,27.2,33.4,24.8,30z M2,45.6c-6.5,0-11.8-1-11.8-2.3
			c0-1.3,5.3-2.3,11.8-2.3c6.5,0,11.8,1,11.8,2.3C13.8,44.5,8.5,45.6,2,45.6z"/>
	</g>
</g>
</svg>
