<?xml version="1.0" encoding="utf-8"?>
<!-- Generator: Adobe Illustrator 16.0.3, SVG Export Plug-In . SVG Version: 6.00 Build 0)  -->
<!DOCTYPE svg PUBLIC "-//W3C//DTD SVG 1.1//EN" "http://www.w3.org/Graphics/SVG/1.1/DTD/svg11.dtd">
<svg version="1.1" id="Layer_1" xmlns="http://www.w3.org/2000/svg" xmlns:xlink="http://www.w3.org/1999/xlink" x="0px" y="0px"
	 width="32px" height="32px" viewBox="0 0 32 32" enable-background="new 0 0 32 32" xml:space="preserve">
<g>
	<g>
		<g>
			<path fill="currentColor" d="M16,0C9.798,0,4.771,5.028,4.771,11.23c0,0.477,0.038,0.938,0.095,1.397
				c0.962,8.772,10.405,18.881,10.405,18.881c0.168,0.186,0.329,0.303,0.486,0.385l0.007,0.007l0.317,0.1l0.313-0.1l0.011-0.007
				c0.154-0.082,0.314-0.199,0.483-0.385c0,0,9.309-10.126,10.245-18.902c0.062-0.452,0.097-0.91,0.097-1.379
				C27.227,5.028,22.199,0,16,0z M16,18.452c-3.983,0-7.222-3.239-7.222-7.222c0-3.983,3.239-7.222,7.222-7.222
				c3.98,0,7.225,3.239,7.225,7.222C23.225,15.213,19.98,18.452,16,18.452z"/>
		</g>
	</g>
</g>
</svg>
