<?xml version="1.0" encoding="utf-8"?>
<!-- Generator: Adobe Illustrator 18.1.1, SVG Export Plug-In . SVG Version: 6.00 Build 0)  -->
<svg version="1.1" id="Layer_1" xmlns="http://www.w3.org/2000/svg" xmlns:xlink="http://www.w3.org/1999/xlink" x="0px" y="0px"
	 viewBox="-33 35 32 32" enable-background="new -33 35 32 32" xml:space="preserve">
<g>
	<g>
		<path fill="currentColor" d="M-2.3,50.4l-3.8-3.8v-3h-7.4v9.4c0,4.5-2.8,8.1-6.5,8.3c0.9,3,3.4,5.2,6.4,5.2h0.2c3.9,0,7.3-3.5,7.3-7.9
			v-4.8l0.2,0.2c1.4,1.4,3.2,1.6,4.2,0.6l0,0C-0.6,53.5-0.8,51.8-2.3,50.4z"/>
		<path fill="currentColor" d="M-6.6,41.2v-0.5c0-0.6-0.5-1.2-1.2-1.2h-5.7v2.9h5.7C-7.2,42.4-6.6,41.9-6.6,41.2z"/>
		<path fill="currentColor" d="M-14.1,52.9V39h-13.8v1.9l-0.6,0.6l-3.3,3.3c-1.4,1.4-1.6,3.2-0.6,4.2l0,0c0.9,0.9,2.5,0.9,3.9-0.3
			c0.1-0.1,0.2-0.2,0.3-0.3l0.3-0.3v4.8c0,4.2,3.4,7.8,7.2,7.8h0.2C-16.9,60.7-14.1,57.3-14.1,52.9z"/>
		<path fill="currentColor" d="M-26.4,37.8h10.8c0.5,0,0.9-0.4,0.9-0.9v-0.5c0-0.2-0.1-0.5-0.3-0.6s-0.4-0.3-0.6-0.3h-10.8
			c-0.5,0-0.9,0.4-0.9,0.9v0.5C-27.3,37.4-26.9,37.8-26.4,37.8z"/>
	</g>
</g>
</svg>
