<?xml version="1.0" encoding="utf-8"?>
<!-- Generator: Adobe Illustrator 16.0.3, SVG Export Plug-In . SVG Version: 6.00 Build 0)  -->
<!DOCTYPE svg PUBLIC "-//W3C//DTD SVG 1.1//EN" "http://www.w3.org/Graphics/SVG/1.1/DTD/svg11.dtd">
<svg version="1.1" id="Layer_1" xmlns="http://www.w3.org/2000/svg" xmlns:xlink="http://www.w3.org/1999/xlink" x="0px" y="0px"
	 width="16px" height="10px" viewBox="0 0 16 10" enable-background="new 0 0 16 10" xml:space="preserve">
<g>
	<path fill="currentColor" d="M15.114,8.334c0,0.292-0.088,0.563-0.228,0.802l-4.493-4.711l4.444-3.644
		c0.172,0.257,0.276,0.559,0.276,0.886V8.334L15.114,8.334z M8,5.279l6.184-5.069C13.93,0.08,13.644,0,13.337,0H2.664
		C2.355,0,2.069,0.08,1.816,0.21L8,5.279z M9.724,4.973L8.292,6.147C8.209,6.216,8.104,6.25,8,6.25
		c-0.105,0-0.209-0.034-0.292-0.103L6.275,4.973l-4.549,4.77C1.999,9.904,2.318,10,2.664,10h10.673c0.344,0,0.664-0.096,0.938-0.257
		L9.724,4.973z M1.162,0.781C0.99,1.038,0.885,1.34,0.885,1.667v6.667c0,0.292,0.087,0.563,0.229,0.802l4.492-4.712L1.162,0.781z"/>
</g>
</svg>
