<?xml version="1.0" encoding="utf-8"?>
<!-- Generator: Adobe Illustrator 18.1.1, SVG Export Plug-In . SVG Version: 6.00 Build 0)  -->
<svg version="1.1" id="Layer_1" xmlns="http://www.w3.org/2000/svg" xmlns:xlink="http://www.w3.org/1999/xlink" x="0px" y="0px"
	 viewBox="-33 35 32 32" enable-background="new -33 35 32 32" xml:space="preserve">
<g>
	<g>
		<path fill="currentColor" d="M-24.4,63.9h5.7v-5.8h3.4v5.8h5.7V38h-14.7V63.9z M-16,41h3.4v3.4H-16V41z M-16,46.5h3.4v3.4H-16V46.5z
			 M-16,52h3.4v3.4H-16V52z M-21.4,41h3.4v3.4h-3.4V41z M-21.4,46.5h3.4v3.4h-3.4V46.5z M-21.4,52h3.4v3.4h-3.4V52z"/>
		<path fill="currentColor" d="M-8.3,40.3v18.3h2.2v5.3H-1V40.3H-8.3z M-3.7,56.1h-3.1V53h3.1V56.1L-3.7,56.1z M-3.7,51.2h-3.1v-3.1h3.1
			V51.2L-3.7,51.2z M-3.7,46.2h-3.1v-3.1h3.1V46.2L-3.7,46.2z"/>
		<path fill="currentColor" d="M-33,63.9h5.1v-5.3h2.2V40.3H-33V63.9z M-30.3,43.1h3.1v3.1h-3.1V43.1z M-30.3,48.1h3.1v3.1h-3.1V48.1z
			 M-30.3,53h3.1v3.1h-3.1V53z"/>
	</g>
</g>
</svg>
