<?xml version="1.0" encoding="utf-8"?>
<!-- Generator: Adobe Illustrator 18.1.1, SVG Export Plug-In . SVG Version: 6.00 Build 0)  -->
<svg version="1.1" id="Layer_1" xmlns="http://www.w3.org/2000/svg" xmlns:xlink="http://www.w3.org/1999/xlink" x="0px" y="0px"
	 viewBox="-33 35 32 32" enable-background="new -33 35 32 32" xml:space="preserve">
<g>
	<path fill="currentColor" d="M-14.5,35l-9.1,9.1l-0.9,0.9l-3.4,3.4l0,0c-0.4,0.7-0.3,1.6,0.3,2.2c0,0,1.5,2.8,3,4.3
		c1.5,1.5-3.2,2.6-5.1,4.5c-2.7,2.7-4.2,5.7-2.8,7.1c1.4,1.4,4.3-0.1,7.1-2.8c1.9-1.9,3-6.5,4.4-5.1c1.4,1.4,4.3,3,4.3,3
		c0.6,0.6,1.5,0.7,2.2,0.3l0.1,0.1l3.4-3.4l0.9-0.9l9.1-9.1L-14.5,35z M-16.3,38C-16.3,38-16.4,38.1-16.3,38L-16.3,38z M-14.4,60.5
		l-12.1-12.1l2.7-2.7l12.1,12.1L-14.4,60.5z M-4.1,48.6c-0.3,0-2.4-0.2-3.4,0C-9.4,49-10.3,49-10.7,46c-0.5-3-1.6-2.2-4.7-0.7
		c-4.3,2.1-3.7-3.3-0.8-7.4l0.2-0.2l1.5-1.5l12.3,12.3L-2.7,49C-2.7,49-3.8,48.6-4.1,48.6z"/>
</g>
</svg>
