<?xml version="1.0" encoding="utf-8"?>
<!-- Generator: Adobe Illustrator 16.0.3, SVG Export Plug-In . SVG Version: 6.00 Build 0)  -->
<!DOCTYPE svg PUBLIC "-//W3C//DTD SVG 1.1//EN" "http://www.w3.org/Graphics/SVG/1.1/DTD/svg11.dtd">
<svg version="1.1" id="Layer_1" xmlns="http://www.w3.org/2000/svg" xmlns:xlink="http://www.w3.org/1999/xlink" x="0px" y="0px"
	 width="16px" height="16px" viewBox="0 0 16 16" enable-background="new 0 0 16 16" xml:space="preserve">
<g>
	<g id="search">
		<g>
			<path fill="currentColor" d="M15.828,15l-3.875-3.875c0.99-1.178,1.589-2.695,1.589-4.354C13.542,3.032,10.51,0,6.771,0
				S0,3.032,0,6.771c0,3.74,3.032,6.771,6.771,6.771c1.659,0,3.177-0.598,4.354-1.589l3.875,3.875c0.229,0.229,0.6,0.229,0.829,0
				C16.057,15.6,16.057,15.229,15.828,15z M6.771,12.312c-3.06,0-5.54-2.48-5.54-5.541c0-3.06,2.48-5.54,5.54-5.54
				c3.061,0,5.54,2.48,5.54,5.54C12.311,9.831,9.83,12.312,6.771,12.312z"/>
		</g>
	</g>
</g>
</svg>
