<?xml version="1.0" encoding="utf-8"?>
<!-- Generator: Adobe Illustrator 18.1.1, SVG Export Plug-In . SVG Version: 6.00 Build 0)  -->
<svg version="1.1" id="Layer_1" xmlns="http://www.w3.org/2000/svg" xmlns:xlink="http://www.w3.org/1999/xlink" x="0px" y="0px"
	 viewBox="-33 35 32 32" enable-background="new -33 35 32 32" xml:space="preserve">
<g>
	<g>
		<path fill="currentColor" d="M-12.7,47.4c0,0-8,0-8.5,0h0c-0.7,0-1.3,0.6-1.3,1.3l0,8.2c0,0.7,0.6,1.3,1.3,1.3c0,0,0,0,0,0
			c0.4,0,0.8-0.2,1-0.5l0.5,8c0,0.7,0.6,1.3,1.4,1.3h2.7c0.7,0,1.3-0.5,1.4-1.3l0.5-8c0.2,0.3,0.6,0.5,1,0.5c0,0,0,0,0,0
			c0.7,0,1.3-0.6,1.3-1.3l0-8.2C-11.4,48-12,47.4-12.7,47.4z"/>
		<circle fill="currentColor" cx="-17" cy="42.8" r="3.6"/>
		<path fill="currentColor" d="M-25.1,41.4c0,0-6.3,0-6.7,0h0c-0.6,0-1,0.5-1,1l0,6.5c0,0.6,0.5,1,1,1h0c0.3,0,0.6-0.2,0.8-0.4l0.4,6.3
			c0,0.6,0.5,1,1.1,1h2.1c0.6,0,1-0.4,1.1-1l0.4-6.3c0.2,0.2,0.5,0.4,0.8,0.4c0,0,0,0,0,0c0.6,0,1-0.5,1-1l0-6.5
			C-24,41.9-24.5,41.4-25.1,41.4z"/>
		<circle fill="currentColor" cx="-28.4" cy="37.9" r="2.9"/>
	</g>
	<g>
		<path fill="currentColor" d="M-8.9,41.4c0,0,6.3,0,6.7,0h0c0.6,0,1,0.5,1,1l0,6.5c0,0.6-0.5,1-1,1c0,0,0,0,0,0c-0.3,0-0.6-0.2-0.8-0.4
			l-0.4,6.3c0,0.6-0.5,1-1.1,1h-2.1c-0.6,0-1-0.4-1.1-1l-0.4-6.3C-8.3,49.8-8.6,50-8.9,50c0,0,0,0,0,0c-0.6,0-1-0.5-1-1l0-6.5
			C-10,41.9-9.5,41.4-8.9,41.4z"/>
		<circle fill="currentColor" cx="-5.6" cy="37.9" r="2.9"/>
	</g>
</g>
</svg>
