<?xml version="1.0" encoding="utf-8"?>
<!-- Generator: Adobe Illustrator 18.1.1, SVG Export Plug-In . SVG Version: 6.00 Build 0)  -->
<svg version="1.1" id="Layer_1" xmlns="http://www.w3.org/2000/svg" xmlns:xlink="http://www.w3.org/1999/xlink" x="0px" y="0px"
	 viewBox="-33 35 32 32" enable-background="new -33 35 32 32" xml:space="preserve">
<g>
	<g id="_x31_4_26_">
		<g>
			<path fill="currentColor" d="M-15.7,37.6c0.4-0.5,0.3-1.5,0.3-2.4c0,0,0-0.1,0-0.1c-0.5,0-1-0.1-1.5-0.1c-2,0-3.9,0.4-5.7,1
				c1.3,0.6,3.2,1.6,5.4,3.2C-16.6,38.6-16,38-15.7,37.6z"/>
			<path fill="currentColor" d="M-7.6,46.7c-0.8,0.1-1.5,0.2-2,0.4c2.7,4.7,3.8,10.7,4,15.1c2.7-2.7,4.4-6.5,4.6-10.6
				C-2.9,49.4-5.3,46.5-7.6,46.7z"/>
			<path fill="currentColor" d="M-23.8,42.6c1.9-0.4,3.7-1.4,5.1-2.4c-3-2.1-5.5-3.1-6-3.3c-3.1,1.7-5.6,4.3-7,7.6
				c1.9-0.7,3.9-1.1,5.9-1.5C-25.1,42.9-24.4,42.8-23.8,42.6z"/>
			<path fill="currentColor" d="M-12.7,43.1c0.2,0.2,0.3,0.3,0.5,0.5c0.6,0.7,1.2,1.4,1.7,2.1c0.8-0.3,1.6-0.5,2.7-0.6
				c2.5-0.3,4.7,1.7,6.6,3.9c-0.4-3.3-1.8-6.3-4-8.7c-1.2,0.1-2.4,0.4-3.8,0.8C-9.7,41.4-11.1,42.1-12.7,43.1z"/>
			<path fill="currentColor" d="M-14.8,51.3c0.7-2.2,1.4-3.8,2.9-4.9c-0.4-0.6-0.9-1.2-1.4-1.8c-0.2-0.3-0.5-0.5-0.7-0.7
				c-5.9,4-14,11.4-14.7,17.8c2.5,2.7,5.8,4.5,9.6,5.1c1.4-2.7,2.7-8.3,3.4-11.6C-15.4,53.6-15.1,52.2-14.8,51.3z"/>
			<path fill="currentColor" d="M-21.5,47.8c2.1-1.9,4.2-3.6,6.2-5c-0.7-0.6-1.3-1.1-2-1.6c-1.7,1.2-3.8,2.5-6.2,3
				c-0.7,0.1-1.3,0.3-2,0.4c-2.5,0.5-4.9,0.9-7,2.1C-32.8,48-33,49.5-33,51c0,3.4,1.1,6.5,2.9,9.1C-29,55.5-24.9,51-21.5,47.8z"/>
			<path fill="currentColor" d="M-13.9,41.9c1.9-1.2,3.5-2.1,4.6-2.4c1-0.3,1.9-0.5,2.8-0.6c-2.1-1.8-4.6-3.1-7.3-3.6
				c0.1,1.1,0.1,2.3-0.6,3.2c-0.3,0.4-0.9,1-1.6,1.6C-15.3,40.7-14.6,41.3-13.9,41.9z"/>
			<path fill="currentColor" d="M-13.3,51.8c-0.2,0.8-0.6,2.2-0.9,3.8c-1.1,4.6-2.1,8.8-3.3,11.4c0.2,0,0.3,0,0.5,0
				c3.7,0,7.2-1.3,9.9-3.4c-0.1-4.5-1.2-11-3.9-15.8C-12.1,48.6-12.7,49.9-13.3,51.8z"/>
		</g>
	</g>
</g>
</svg>
