<?xml version="1.0" encoding="utf-8"?>
<!-- Generator: Adobe Illustrator 16.0.3, SVG Export Plug-In . SVG Version: 6.00 Build 0)  -->
<!DOCTYPE svg PUBLIC "-//W3C//DTD SVG 1.1//EN" "http://www.w3.org/Graphics/SVG/1.1/DTD/svg11.dtd">
<svg version="1.1" id="Layer_1" xmlns="http://www.w3.org/2000/svg" xmlns:xlink="http://www.w3.org/1999/xlink" x="0px" y="0px"
	 width="16px" height="16px" viewBox="0 0 16 16" enable-background="new 0 0 16 16" xml:space="preserve">
<g>
	<g>
		<path fill="currentColor" d="M8,1.529l1.881,3.809l0.232,0.471l0.521,0.076l4.202,0.611l-3.04,2.964L11.42,9.826l0.089,0.519
			l0.717,4.188l-3.76-1.976L8,12.312l-0.465,0.244L3.776,14.53l0.718-4.185l0.089-0.519L4.206,9.461L1.164,6.496l4.204-0.611
			l0.52-0.076L6.12,5.338L8,1.529 M8,0.349c-0.327,0-0.625,0.186-0.769,0.479L5.223,4.895L0.735,5.548
			C0.412,5.595,0.143,5.821,0.042,6.132c-0.101,0.31-0.017,0.652,0.217,0.879l3.249,3.166l-0.767,4.47
			c-0.056,0.324,0.077,0.648,0.341,0.84c0.15,0.107,0.326,0.162,0.504,0.162c0.137,0,0.274-0.032,0.4-0.099L8,13.441l4.014,2.109
			c0.127,0.067,0.264,0.1,0.4,0.1c0.176,0,0.354-0.057,0.504-0.164c0.264-0.193,0.396-0.52,0.342-0.84l-0.766-4.471l3.246-3.165
			c0.234-0.228,0.318-0.569,0.216-0.879c-0.099-0.311-0.369-0.537-0.69-0.584l-4.488-0.653L8.77,0.828
			C8.625,0.535,8.327,0.349,8,0.349L8,0.349z"/>
	</g>
</g>
</svg>
