<?xml version="1.0" encoding="utf-8"?>
<!-- Generator: Adobe Illustrator 18.1.1, SVG Export Plug-In . SVG Version: 6.00 Build 0)  -->
<svg version="1.1" id="Capa_1" xmlns="http://www.w3.org/2000/svg" xmlns:xlink="http://www.w3.org/1999/xlink" x="0px" y="0px"
	 viewBox="-5 7.7 37.3 37.3" enable-background="new -5 7.7 37.3 37.3" xml:space="preserve">
<g>
	<path stroke="currentColor" stroke-miterlimit="10" d="M31.1,24.1l-7.3,7.1l1.7,10.1c0.1,0.7-0.2,1.5-0.8,1.9
		c-0.3,0.2-0.7,0.4-1.1,0.4c-0.3,0-0.6-0.1-0.9-0.2l-9.1-4.8l-9.1,4.8c-0.7,0.3-1.4,0.3-2-0.1c-0.6-0.4-0.9-1.2-0.8-1.9l1.7-10.1
		l-7.3-7.1c-0.5-0.5-0.7-1.3-0.5-2c0.2-0.7,0.8-1.2,1.6-1.3l10.1-1.5l4.5-9.2c0.3-0.7,1-1.1,1.7-1.1c0.7,0,1.4,0.4,1.7,1.1l4.5,9.2
		l10.1,1.5c0.7,0.1,1.3,0.6,1.6,1.3C31.8,22.8,31.6,23.6,31.1,24.1z"/>
</g>
</svg>
