<?xml version="1.0" encoding="utf-8"?>
<!-- Generator: Adobe Illustrator 18.1.1, SVG Export Plug-In . SVG Version: 6.00 Build 0)  -->
<svg version="1.1" id="Capa_1" xmlns="http://www.w3.org/2000/svg" xmlns:xlink="http://www.w3.org/1999/xlink" x="0px" y="0px"
	 viewBox="-21 22 57 57" enable-background="new -21 22 57 57" xml:space="preserve">
<g>
	<g>
		<path fill="currentColor" d="M31.8,59.2c-1.4,0-2.4,3.5-2.4,4.9c0,1.4,1.1,2.4,2.4,2.4c1.4,0,2.4-1.1,2.4-2.4C34.3,62.7,33.2,59.2,31.8,59.2z"/>
		<path fill="currentColor" d="M27.5,70.7c-1.4,0-2.4,3.5-2.4,4.9c0,1.4,1.1,2.4,2.4,2.4c1.4,0,2.4-1.1,2.4-2.4S28.9,70.7,27.5,70.7z"/>
		<path fill="currentColor" d="M24.1,52.1c1.2,2.3,3.5,3.9,6,4.1c0.4,0,0.9-0.1,1.2-0.4c0.3-0.3,0.4-0.7,0.4-1.2L30,42.7c-0.1-0.4-0.3-0.8-0.7-1
			c-0.4-0.2-0.8-0.2-1.2-0.1c-2.4,1-4.2,3.1-4.6,5.7l-13.5,2l6.6-8.4c1-1.2,0.8-3-0.3-4L5.1,26.6c-1.2-1-2.9-1-4,0l-0.2,0.2
			c-0.3-0.3-0.6-0.6-0.9-0.9C-2.2,24-5,23-7.8,23c-3.2,0-6.3,1.4-8.5,3.7c-4.2,4.6-3.9,11.7,0.5,16c-0.5,0.6-0.8,1.3-0.8,2.1
			c0,0.8,0.4,1.6,1,2.2L-2,59.3c0.6,0.6,1.4,0.8,2.2,0.8C1.1,60,1.8,59.6,2.3,59l3.3-4.2L24.1,52.1z M-13.6,29.2
			c1.5-1.6,3.6-2.6,5.8-2.6c2,0,3.8,0.7,5.3,2c0.3,0.2,0.5,0.5,0.7,0.8l-11.3,10.8C-16.3,37.3-16.5,32.3-13.6,29.2z"/>
	</g>
</g>
</svg>
