<?xml version="1.0" encoding="utf-8"?>
<!-- Generator: Adobe Illustrator 15.0.2, SVG Export Plug-In . SVG Version: 6.00 Build 0)  -->
<!DOCTYPE svg PUBLIC "-//W3C//DTD SVG 1.1//EN" "http://www.w3.org/Graphics/SVG/1.1/DTD/svg11.dtd">
<svg version="1.1" id="Capa_1" xmlns="http://www.w3.org/2000/svg" xmlns:xlink="http://www.w3.org/1999/xlink" x="0px" y="0px"
	 width="57px" height="57px" viewBox="-5.664 -5.664 57 57" enable-background="new -5.664 -5.664 57 57" xml:space="preserve">
<g>
	<g>
		<path fill="currentColor" d="M37.373,28.012c-0.807,0-1.462,2.096-1.462,2.903s0.655,1.462,1.462,1.462
			c0.809,0,1.463-0.654,1.463-1.462C38.836,30.109,38.182,28.012,37.373,28.012z"/>
		<path fill="currentColor" d="M34.791,34.915c-0.807,0-1.462,2.094-1.462,2.901c0,0.809,0.655,1.463,1.462,1.463
			c0.809,0,1.463-0.654,1.463-1.463S35.6,34.915,34.791,34.915z"/>
		<path fill="currentColor" d="M32.773,23.777c0.697,1.373,2.062,2.314,3.613,2.453c0.258,0.022,0.51-0.073,0.688-0.26
			c0.177-0.188,0.257-0.445,0.221-0.701l-1.032-7.066c-0.039-0.255-0.19-0.479-0.414-0.607c-0.223-0.129-0.492-0.148-0.731-0.054
			c-1.448,0.577-2.484,1.87-2.761,3.386l-8.039,1.177l3.964-5.025c0.577-0.73,0.491-1.783-0.197-2.41l-6.69-6.1
			c-0.688-0.626-1.743-0.615-2.417,0.026L18.83,8.735c-0.168-0.193-0.346-0.379-0.54-0.555c-1.264-1.153-2.902-1.787-4.611-1.787
			c-1.922,0-3.767,0.814-5.062,2.233c-2.5,2.744-2.344,6.978,0.312,9.538C8.612,18.497,8.43,18.937,8.435,19.4
			c0.005,0.492,0.214,0.96,0.579,1.292l8.141,7.423c0.364,0.332,0.85,0.496,1.34,0.458c0.491-0.042,0.943-0.283,1.248-0.671
			l1.979-2.508L32.773,23.777z M10.214,10.082c0.886-0.972,2.148-1.529,3.465-1.529c1.17,0,2.29,0.435,3.156,1.224
			c0.155,0.142,0.295,0.294,0.427,0.451l-6.775,6.442C8.611,14.925,8.483,11.98,10.214,10.082z"/>
	</g>
</g>
</svg>
