<?xml version="1.0" encoding="utf-8"?>
<!-- Generator: Adobe Illustrator 18.1.1, SVG Export Plug-In . SVG Version: 6.00 Build 0)  -->
<svg version="1.1" id="Layer_1" xmlns="http://www.w3.org/2000/svg" xmlns:xlink="http://www.w3.org/1999/xlink" x="0px" y="0px"
	 viewBox="-33 35 32 32" enable-background="new -33 35 32 32" xml:space="preserve">
<g>
	<g>
		<path fill="currentColor" d="M-1.2,46.2c-0.2-0.2-0.4-0.3-0.6-0.3h-3.1c-0.8-2-1.8-4-2.9-4.8c-3.9-2.6-14.4-2.6-18.3,0
			c-1.1,0.8-2.1,2.7-2.9,4.8h-3.1c-0.2,0-0.5,0.1-0.6,0.3c-0.2,0.2-0.2,0.4-0.2,0.7l0.5,2.2c0.1,0.4,0.4,0.7,0.8,0.7h0.9
			c-0.9,1-1.3,2.3-1.3,3.6c0,1.6,0.6,3,1.7,4.1c0,0,0,0,0,0v3.1c0,0.7,0.6,1.2,1.2,1.2h2.9c0.7,0,1.2-0.6,1.2-1.2v-1.3H-9v1.3
			c0,0.7,0.6,1.2,1.2,1.2h2.9c0.7,0,1.2-0.6,1.2-1.2v-3.1c1.2-1.1,1.7-2.6,1.7-4c0-1.3-0.4-2.7-1.4-3.7h1c0.4,0,0.7-0.3,0.8-0.7
			l0.5-2.2C-1,46.7-1,46.4-1.2,46.2z M-24.8,43.2c3.1-2.1,12.5-2.1,15.6,0c0.6,0.4,1.4,2,2.1,4h-19.8
			C-26.2,45.2-25.4,43.6-24.8,43.2z M-28.5,53.7c0-1.3,1.1-2.4,2.4-2.4c1.3,0,2.4,1.1,2.4,2.4c0,1.3-1.1,2.4-2.4,2.4
			C-27.4,56.1-28.5,55-28.5,53.7z M-7.9,56.1c-1.3,0-2.4-1.1-2.4-2.4c0-1.3,1.1-2.4,2.4-2.4c1.3,0,2.4,1.1,2.4,2.4
			C-5.5,55-6.6,56.1-7.9,56.1z"/>
	</g>
</g>
</svg>
