<?xml version="1.0" encoding="utf-8"?>
<!-- Generator: Adobe Illustrator 16.0.3, SVG Export Plug-In . SVG Version: 6.00 Build 0)  -->
<!DOCTYPE svg PUBLIC "-//W3C//DTD SVG 1.1//EN" "http://www.w3.org/Graphics/SVG/1.1/DTD/svg11.dtd">
<svg version="1.1" id="Layer_1" xmlns="http://www.w3.org/2000/svg" xmlns:xlink="http://www.w3.org/1999/xlink" x="0px" y="0px"
	 width="16px" height="16px" viewBox="0 0 16 16" enable-background="new 0 0 16 16" xml:space="preserve">
<g>
	<path fill="currentColor" d="M8,0C3.58,0,0,3.58,0,8c0,4.417,3.58,8,8,8c4.419,0,8-3.582,8-8C16,3.58,12.42,0,8,0z M8,14.695
		c-3.698,0-6.695-2.997-6.695-6.696S4.302,1.303,8,1.303c3.698,0,6.695,2.999,6.695,6.698C14.695,11.698,11.698,14.695,8,14.695z"/>
	<polygon fill="#C4CACF" points="8.851,9.73 9.176,3.034 6.839,3.034 7.166,9.73 	"/>
	<path fill="#C4CACF" d="M8.007,10.468c-0.783,0-1.33,0.548-1.33,1.347c0,0.768,0.532,1.344,1.299,1.344h0.031
		c0.797,0,1.315-0.576,1.315-1.344C9.309,11.016,8.791,10.468,8.007,10.468z"/>
</g>
</svg>
