<?xml version="1.0" encoding="utf-8"?>
<!-- Generator: Adobe Illustrator 18.1.1, SVG Export Plug-In . SVG Version: 6.00 Build 0)  -->
<svg version="1.1" id="Layer_1" xmlns="http://www.w3.org/2000/svg" xmlns:xlink="http://www.w3.org/1999/xlink" x="0px" y="0px"
	 viewBox="-33 35 32 32" enable-background="new -33 35 32 32" xml:space="preserve">
<g>
	<circle fill="currentColor" cx="-27.9" cy="39.7" r="0.8"/>
	<circle fill="currentColor" cx="-25.4" cy="39.7" r="0.8"/>
	<circle fill="currentColor" cx="-11.1" cy="39.7" r="0.8"/>
	<circle fill="currentColor" cx="-8.6" cy="39.7" r="0.8"/>
	<circle fill="currentColor" cx="-6.1" cy="39.7" r="0.8"/>
	<path fill="currentColor" d="M-17,61.1c3.8,0,6.9-3.1,6.9-6.9c0-3.8-3.1-6.9-6.9-6.9s-6.9,3.1-6.9,6.9C-23.9,58-20.8,61.1-17,61.1z
		 M-17,48.6c3,0,5.5,2.5,5.5,5.5c0,0,0,0.1,0,0.1c-0.2,0.2-0.5,0.4-1,0.4c-0.6,0-0.9-0.3-1.1-0.5c-0.3-0.2-0.5-0.5-1.1-0.5
		c-0.5,0-0.8,0.2-1.1,0.5c-0.3,0.2-0.6,0.5-1.1,0.5s-0.9-0.3-1.1-0.5c-0.3-0.2-0.5-0.5-1.1-0.5c-0.5,0-0.8,0.2-1.1,0.5
		c-0.3,0.2-0.6,0.5-1.1,0.5c-0.5,0-0.8-0.2-1.1-0.4c0,0,0,0,0-0.1C-22.5,51.1-20,48.6-17,48.6z"/>
	<path fill="currentColor" d="M-30.5,67h27V41.3h-27V67z M-17,45.6c4.7,0,8.5,3.8,8.5,8.5c0,4.7-3.8,8.5-8.5,8.5s-8.5-3.8-8.5-8.5
		C-25.5,49.4-21.7,45.6-17,45.6z"/>
	<rect x="-30.5" y="35" fill="currentColor" width="27" height="2.8"/>
</g>
</svg>
