<?xml version="1.0" encoding="utf-8"?>
<!-- Generator: Adobe Illustrator 18.1.1, SVG Export Plug-In . SVG Version: 6.00 Build 0)  -->
<svg version="1.1" id="Layer_1" xmlns="http://www.w3.org/2000/svg" xmlns:xlink="http://www.w3.org/1999/xlink" x="0px" y="0px"
	 viewBox="-33 35 32 32" enable-background="new -33 35 32 32" xml:space="preserve">
<g>
	<g>
		<path fill="currentColor" d="M-15.5,41.5c0.9,0,1.5-0.6,1.6-1.5l0.4-3.5c0-0.8-0.7-1.5-1.6-1.5h-3.8c-0.9,0-1.6,0.7-1.6,1.5l0.4,3.5
			c0.1,1,0.7,1.5,1.6,1.5c0.7,0,0.8-0.2,1.6-0.2C-16.1,41.3-16,41.5-15.5,41.5"/>
		<polygon fill="currentColor" points="-13.6,51.2 -21.1,55.2 -21.3,56.4 -13.4,52.3 		"/>
		<polygon fill="currentColor" points="-14.3,46.8 -20.2,49.8 -21,54.5 -13.7,50.6 		"/>
		<polygon fill="currentColor" points="-20.1,49.2 -14.4,46.2 -14.6,45.2 -19.9,48 		"/>
		<path fill="currentColor" d="M-21.8,61.6l0.9,1l8.5-4.5l-0.8-4.7l-8.3,4.4l-0.3,1.6C-21.8,59.7-22.3,61-21.8,61.6"/>
		<path fill="currentColor" d="M-19.2,64.6l1.6,1.9c0.6,0.6,0.7,0.6,1.2,0l4.2-4.9c0.2-0.2,0.3-0.5,0.3-0.8L-19.2,64.6z"/>
		<path fill="currentColor" d="M-14.8,44.1l-0.3-1.8c-0.6-0.6-3.3-0.6-3.9,0l-0.7,4.3L-14.8,44.1z"/>
		<path fill="currentColor" d="M-12.2,59.4l0-0.1l-7.9,4.2l0.6,0.7l7.6-4C-12.1,59.9-12.2,59.6-12.2,59.4"/>
	</g>
</g>
</svg>
