<svg xmlns="http://www.w3.org/2000/svg" viewBox="-33 35 32 32"><g fill="currentColor"><circle cx="-27.9" cy="39.7" r=".8"/><circle cx="-25.4" cy="39.7" r=".8"/><circle cx="-11.1" cy="39.7" r=".8"/><circle cx="-8.6" cy="39.7" r=".8"/><circle cx="-6.1" cy="39.7" r=".8"/><path d="M-17 61.1c3.8 0 6.9-3.1 6.9-6.9 0-3.8-3.1-6.9-6.9-6.9s-6.9 3.1-6.9 6.9c0 3.8 3.1 6.9 6.9 6.9zm0-12.5c3 0 5.5 2.5 5.5 5.5v.1c-.2.2-.5.4-1 .4-.6 0-.9-.3-1.1-.5-.3-.2-.5-.5-1.1-.5-.5 0-.8.2-1.1.5-.3.2-.6.5-1.1.5s-.9-.3-1.1-.5c-.3-.2-.5-.5-1.1-.5-.5 0-.8.2-1.1.5-.3.2-.6.5-1.1.5-.5 0-.8-.2-1.1-.4v-.1c-.1-3 2.4-5.5 5.4-5.5z"/><path d="M-30.5 67h27V41.3h-27V67zM-17 45.6c4.7 0 8.5 3.8 8.5 8.5s-3.8 8.5-8.5 8.5-8.5-3.8-8.5-8.5 3.8-8.5 8.5-8.5zM-30.5 35h27v2.8h-27z"/></g></svg>