<svg xmlns="http://www.w3.org/2000/svg" viewBox="-33 35 32 32"><g fill="currentColor"><path d="M-10.5 50.4c.6 0 1-.1 1.4-.3.5-.3.8-.6 1-1 .2-.4.2-.7 0-1.1-.2-.4-.6-.6-1.1-.6-.4 0-.7.1-1.1.3-1 .5-1.5 2.1-1.5 2.2l-.1.2.3.1c-.2.1.4.2 1.1.2zM-17 51.9c1.1 0 2.2-.9 2.3-.9l.2-.2-.2-.2c0-.1-1.1-1.3-2.3-1.4h-.4c-1.1 0-1.5.6-1.6 1.1 0 .4.1.7.4 1 .3.3.7.4 1.3.5.1.1.2.1.3.1z"/><path d="M-12 54.5c.6-5.6-2-9.5-3.4-11 .3-.3.6-.6.8-1 .9-1.8.2-4.1-1.6-5-.7-.4-1.6-.5-2.3-.4-.3-.7-.9-1.3-1.6-1.7-1.8-.9-4.1-.2-5 1.6-.4.7-.5 1.6-.4 2.3-.7.3-1.3.9-1.7 1.6-.9 1.8-.2 4.1 1.6 5 .7.4 1.6.5 2.3.4.3.7.9 1.3 1.6 1.7 1.8.9 4.1.2 5-1.6.1-.3.2-.6.3-.8 1.2 1.6 2.8 4.7 2.3 8.9h-6.7l3 12.5h8.4l3-12.5H-12zm-8.4-10.3v.4c0 .3-.2.5-.5.5s-.5-.2-.5-.5v-.4c-.5-.1-.9-.3-1.2-.7-.2-.2-.2-.5 0-.7.2-.2.5-.2.7 0 .2.2.6.4 1 .4s.8-.1.8-.4c0-.3-.2-.4-.9-.6-.7-.2-1.6-.5-1.6-1.6 0-.7.5-1.2 1.2-1.3v-.5c0-.3.2-.5.5-.5s.5.2.5.5v.4c.4 0 .8.2 1.1.4.2.1.3.4.1.7-.1.2-.4.3-.7.1-.2-.1-.6-.2-.9-.2-.4 0-.9.1-.9.5s.2.5 1 .7c.6.2 1.6.5 1.6 1.6 0 .6-.5 1.1-1.3 1.2zm10 19.4l-.3 1.4c-.1.2-.2.4-.5.4h-.1c-.3-.1-.4-.3-.4-.6l.3-1.4c.1-.3.3-.4.6-.4.3.1.4.3.4.6zm.6-2.7c-.1.2-.2.4-.5.4h-.1c-.3-.1-.4-.3-.4-.6l.6-2.8c.1-.3.3-.4.6-.4.3.1.4.3.4.6l-.6 2.8z"/></g></svg>