<svg xmlns="http://www.w3.org/2000/svg" viewBox="-33 35 32 32"><path fill="currentColor" d="M-1.3 57.2l-10-13 1.9-1.9c.3-.3.5-.7.5-1.1 0-.4-.2-.8-.5-1.1l-3.5-3.5c-2.2-2.2-5.8-2.2-8 0l-3.5 3.5c-.3.3-.5.7-.5 1.1 0 .4.2.8.5 1.1l1.9 1.9-10 13c-.5.7-.4 1.6.2 2.1l1.6 1.3c.6.5 1.6.5 2.1-.2l4.5-5 .4 10.1c0 .8.7 1.5 1.5 1.5h4.2V45.8l-3.8-3.8c-.4-.4-.4-1.1 0-1.5l1.6-1.6c1.8-1.8 4.8-1.8 6.6 0l1.6 1.6c.4.4.4 1.1 0 1.5l-3.8 3.8s-.1 0-.1.1V67h4.3c.8 0 1.5-.7 1.5-1.5l.4-10 4.5 5c.6.6 1.5.7 2.1.2l1.6-1.3c.6-.6.7-1.5.2-2.2z"/></svg>