<svg xmlns="http://www.w3.org/2000/svg" viewBox="-33 35 32 32"><g fill="currentColor"><circle cx="-17.1" cy="45.8" r="1.1"/><path d="M-8.6 60.3c-.5-.3-.4-.8-.4-1.1v-4.5c1.6-.3 5-.3 5-3.4 0-1.5-1.2-2.1-2.8-1.9-1.2.1-1.8.9-3.8.2-.3-.1-1-.7-.6-1.2 1.1-1.3 1.7-3 1.7-4.8 0-.3 0-.9.3-1 1.4-.6 2.3-2 2.3-3.6 0-2.2-1.7-3.9-3.8-3.9-1.1 0-2.2.5-2.9 1.3-.1.1-.2.2-.4.1-1-.5-1.8-.6-2.9-.6-1.2 0-2.1.2-3.1.7-.3.1-.5-.2-.7-.4-.7-.7-1.6-1.1-2.7-1.1-2.1 0-3.8 1.8-3.8 3.9 0 1.7 1 3.1 2.4 3.6.1.1.4.2.4.9.1 1.8.6 3.4 1.6 4.8.4.5 0 1.1-.6 1.3-2.1.6-2.6 0-3.8-.2-1.5-.2-2.8.4-2.8 1.9 0 3 3.4 3.1 5 3.4v4.5c0 .3 0 .8-.6 1.2-1.9.8-4.7.9-4.7 3.6 0 1.6 1.4 3.3 3 3 2-.4 3.1-1.1 6.1-2.5.7-.3 1.1-.1 1.4-.1.9.1 1.8.2 2.8.2 1.1 0 2.1-.1 3.1-.2.2 0 .8-.1 1.3.1 3 1.4 4 2.1 5.9 2.5 1.6.3 3-1.3 3-3 0-2.7-2.9-2.9-4.9-3.7zm-4.8-13.4c0 1.6-1.7 2.9-3.7 2.9-2.1 0-3.7-1.3-3.7-2.9s1.7-2.9 3.7-2.9c2.1 0 3.7 1.3 3.7 2.9zm-9-4.8c0-.7.6-1.3 1.3-1.3s1.3.6 1.3 1.3-.6 1.3-1.3 1.3c-.7.1-1.3-.5-1.3-1.3zm9.9 16.4c0 2.5-2 3.6-4.5 3.6s-4.5-1.1-4.5-3.6v-2.1c0-2.5 2-4.5 4.5-4.5s4.5 2 4.5 4.5v2.1zm-1-15c-.7 0-1.3-.6-1.3-1.3 0-.7.6-1.3 1.3-1.3s1.3.6 1.3 1.3c0 .7-.6 1.3-1.3 1.3z"/></g></svg>