<svg xmlns="http://www.w3.org/2000/svg" viewBox="-33 35 32 32"><g fill="currentColor"><path d="M-13.1 64.4h-.9c-.7 0-1.2-.6-1.2-1.2v-8.4c0-1-.8-1.8-1.8-1.8s-1.8.8-1.8 1.8v8.4c0 .7-.6 1.2-1.2 1.2h-.9c-1.1 0-2.1.9-2.1 2.1v.5h12v-.6c0-1.1-.9-2-2.1-2z"/><path d="M-3.9 46.8S-9.3 36.1-10 35.5c-.6-.6-1.5-.5-1.5-.5h-11.4s-.9-.1-1.5.5c-.7.6-5.7 11.3-5.7 11.3-.6 1.1-1.2 3-.4 3.7.8.6 2.7.4 3.7.4 1.1 0 2 .8 2.1 1.7.1 1-.2 1.9-.6 2.3-.2.2-.3.5-.3.9 0 .8.7 1.5 1.5 1.5s1.5-.7 1.5-1.5c0-.3-.1-.6-.3-.9-.3-.4-.6-1.3-.5-2.3.1-1 1.2-1.7 2.5-1.7h13.5c1.3 0 3.1-.1 3.8-.7.9-.5.4-2.3-.3-3.4z"/></g></svg>