<svg xmlns="http://www.w3.org/2000/svg" viewBox="-33 35 32 32"><g fill="currentColor"><path d="M-21.9 58.5l-1.3-2-2.6.5 3.5-6.1h-6.8V67h11.5V50.9M-3 43.2h-7.6c.4-.2.8-.5 1.2-.7 1.4-1 2.1-2.2 2.1-3.4 0-1-.5-2.4-1.2-3-.7-.6-1.6-1-2.6-1s-2 .4-2.9.9c-1.3.8-2.2 2.7-2.9 4 0 .1-.1.1-.1.2-.3-.5-.6-1.6-.9-2.1-.6-.8-1.3-1.6-2.1-2.2-.8-.6-1.8-.9-2.8-.9-1 0-2 .4-2.7 1.1-.7.7-1.2 2.2-1.2 3.2 0 .6.2 1.3.6 1.9.5.7 1.2 1.4 2.3 1.9h-7v6.4h13.2v-6.4h1.6v6.4h13v-6.3zm-20.5-2.1c-.5-.3-.9-.7-1-1-.2-.3-.3-.8-.3-1.1 0-.4.2-1.2.6-1.5.4-.4.9-.6 1.3-.6.6 0 1.2.2 1.8.6.9.6 1.7 2.1 2.3 3.3.3.6.5 1.2.7 1.8-2.7-.2-4.4-.8-5.4-1.5zm9-1.3c.5-.7 1-1.8 1.6-2.2.6-.4 1.2-.6 1.8-.6.5 0 1 .2 1.3.5.3.3.5.8.5 1.2 0 .4-.2 1.4-1.3 2.2-1 .7-2.7 1.4-5.3 1.9.3-1.1.8-2.1 1.4-3zM-8.2 57l-2.6-.5-1.2 2.1-4.3-7.6v16h11.4V50.9h-6.7"/></g></svg>