<svg xmlns="http://www.w3.org/2000/svg" viewBox="-33 35 32 32"><path fill="currentColor" d="M-1.2 37.4l-2.2-2.2c-.3-.3-.7-.3-1.1 0l-3.6 3c-.2.1-.3.3-.3.6 0 .2.1.4.2.6l.2.2-8.8 8.8-1.1-1.1c-.6-.6-1.4-1-2.3-1-.8 0-1.6.3-2.2.8l-.2.2c-.4.4-.8.9-1 1.4-.4.7-1 1.1-1.8 1.1-2.1.1-4 1-5.5 2.5-3 3.2-2.8 8.6.5 11.9 1.7 1.7 4 2.7 6.4 2.7 2.2 0 4.3-.8 5.8-2.4 1.4-1.4 2.2-3.3 2.3-5.3 0-.8.4-1.4 1.1-1.7.6-.3 1.2-.7 1.6-1.2 1.2-1.3 1.1-3.3-.1-4.5l-1.1-1.1 8.8-8.8.2.2c.1.1.3.2.6.2.2 0 .4-.1.6-.3l3-3.6c.3-.2.2-.7 0-1zm-17.4 17.7c0 .7-.3 1.3-.7 1.8-.5.5-1.1.7-1.8.7s-1.3-.3-1.8-.7c-.5-.5-.7-1.1-.7-1.8s.3-1.3.7-1.8c.5-.5 1.1-.7 1.8-.7s1.3.3 1.8.7c.4.5.7 1.1.7 1.8zm-4.5 7.8c-.2.2-.4.2-.6.2-.2 0-.4-.1-.6-.2l-4.7-4.7c-.3-.3-.3-.8 0-1.1.3-.3.8-.3 1.1 0l4.7 4.7c.4.3.4.8.1 1.1z"/></svg>