<svg xmlns="http://www.w3.org/2000/svg" width="57" height="57" viewBox="0 0 57 57"><path fill="currentColor" d="M39.157 15.904c-.668-.99-1.518-1.812-2.435-2.457-.465-.32-.938-.59-1.44-.824-.25-.106-.566-.25-.767-.317l-.326-.115-.214-.07-.19-.054c-1.01-.29-2.085-.445-3.188-.38-1.09.082-2.285-.05-3.55.186-1.26.218-2.417 1.012-3.056 2.2-.598 1.196-1.027 3.778.353 4.662 1.028.526 2.82-.118 3.48-.42.624-.306.95-.766 1.328-1.464.373-.67.963-1.336 1.69-1.408.715-.09 1.47-.026 2.228.148l.146.03c-.05-.017.078.022.11.032l.33.097c.24.065.345.125.528.183.344.138.696.31 1.02.512.646.405 1.238.912 1.71 1.547.974 1.246 1.468 2.96 1.454 4.71-.02 1.75-.542 3.524-1.466 4.996-.117.18-.23.37-.365.536l-.18.243-.232.28c-.25.297-.568.627-.877.9-.63.566-1.33 1.036-2.08 1.417-1.05.53-2.187.872-3.366 1.084 5.675-2.424 4.94-9.22 4.94-9.22-.305-.974-4.053-1.74-8.626-1.74-4.577 0-8.323.768-8.628 1.74h-.012s-.003.03-.003.07c-.004.02-.004.038-.004.058v.12c0 4.354 2.46 8.072 5.88 9.4-.148.028-.305.062-.515.15-.17.087-.513.215-.794.7l.01-.02c-.202.348-.208.473-.257.696-.032.208-.022.396 0 .587.056.348.186.614.308.805.122.188.247.326.357.427.123.126.216.182.325.268.11.087.197.127.296.19.1.06.193.106.282.15.184.095.36.164.535.23.392.147.774.26 1.148.355v.372c-2.17.477-3.89 2.376-4.41 4.815-.003.008-.007.026-.007.036 0 .007-.003.032-.006.032h.004s-.004.01-.004.02c0 .703 2.453 1.27 5.48 1.27 3.027 0 5.48-.564 5.48-1.27 0-.01-.004-.02-.006-.02h.035c-.3-1.46-1.03-2.734-2.027-3.628.11-.176.218-.404.28-.717.106-.474-.015-1.002-.16-1.284-.15-.32-.3-.477-.432-.626-.137-.143-.262-.243-.38-.333-.472-.335-.87-.52-1.273-.7-.026-.01-.055-.02-.08-.032.298-.012.594-.028.893-.053 1.892-.148 3.845-.533 5.686-1.43.92-.447 1.808-1.023 2.62-1.73.41-.36.77-.72 1.162-1.168l.236-.28.264-.348c.174-.216.328-.45.49-.68 1.252-1.86 2.035-4.17 2.14-6.58.1-2.393-.515-4.914-1.87-6.886zm-13.042 8.95c-3.724 0-6.744-.6-6.744-1.334 0-.737 3.02-1.336 6.745-1.336s6.744.6 6.744 1.336c-.002.736-3.023 1.334-6.745 1.334z"/></svg>