<svg xmlns="http://www.w3.org/2000/svg" viewBox="-21 22 57 57"><path fill="currentColor" d="M24.8 30c-1.2-1.7-2.7-3.2-4.3-4.3-.8-.6-1.6-1-2.5-1.4-.4-.2-1-.4-1.3-.6l-.6-.2-.4-.1-.3-.1c-1.8-.5-3.6-.8-5.6-.7-1.9.1-4-.1-6.2.3s-4.2 1.8-5.3 3.8c-1 2.1-1.8 6.6.6 8.1 1.8.9 4.9-.2 6.1-.7 1.1-.5 1.7-1.3 2.3-2.6.7-1.2 1.7-2.3 2.9-2.5 1.3-.2 2.6 0 3.9.3l.3.1c-.1 0 .1 0 .2.1l.6.2c.4.1.6.2.9.3.6.2 1.2.5 1.8.9 1.1.7 2.2 1.6 3 2.7 1.7 2.2 2.6 5.2 2.5 8.2 0 3.1-.9 6.2-2.6 8.7l-.6.9-.3.4-.4.5c-.4.5-1 1.1-1.5 1.6-1.1 1-2.3 1.8-3.6 2.5-1.8.9-3.8 1.5-5.9 1.9 9.9-4.2 8.6-16.1 8.6-16.1-.5-1.7-7.1-3-15.1-3s-14.5 1.3-15.1 3v.5c0 7.6 4.3 14.1 10.3 16.4-.3 0-.5.1-.9.3-.3.2-.9.4-1.4 1.2-.4.6-.4.8-.4 1.2-.1.4 0 .7 0 1 .1.6.3 1.1.5 1.4.2.3.4.6.6.7.2.2.4.3.6.5.2.2.3.2.5.3.2.1.3.2.5.3.3.2.6.3.9.4.7.3 1.4.5 2 .6v.6c-3.8.8-6.8 4.1-7.7 8.4v.2c0 1.2 4.3 2.2 9.6 2.2s9.6-1 9.6-2.2h.1c-.5-2.6-1.8-4.8-3.5-6.3.2-.3.4-.7.5-1.3.2-.8 0-1.7-.3-2.2-.3-.6-.5-.8-.8-1.1-.2-.2-.5-.4-.7-.6-.8-.6-1.5-.9-2.2-1.2 0 0-.1 0-.1-.1.5 0 1 0 1.6-.1 3.3-.3 6.7-.9 9.9-2.5 1.6-.8 3.2-1.8 4.6-3 .7-.6 1.3-1.3 2-2l.4-.5.5-.6.9-1.2c2.2-3.2 3.6-7.3 3.7-11.5 0-4.2-1-8.6-3.4-12zM2 45.6c-6.5 0-11.8-1-11.8-2.3C-9.8 42-4.5 41 2 41c6.5 0 11.8 1 11.8 2.3 0 1.2-5.3 2.3-11.8 2.3z"/></svg>