<svg xmlns="http://www.w3.org/2000/svg" width="32" height="32" viewBox="0 0 32 32"><path fill="currentColor" d="M16 0C9.798 0 4.77 5.028 4.77 11.23c0 .477.04.938.096 1.397.962 8.772 10.405 18.88 10.405 18.88.17.187.33.304.487.386l.007.007.317.1.314-.1.01-.007c.155-.082.315-.2.484-.385 0 0 9.31-10.126 10.245-18.902.062-.452.097-.91.097-1.38C27.227 5.03 22.2 0 16 0zm0 18.452c-3.983 0-7.222-3.24-7.222-7.222 0-3.983 3.24-7.222 7.222-7.222 3.98 0 7.225 3.24 7.225 7.222 0 3.983-3.245 7.222-7.225 7.222z"/></svg>