<svg xmlns="http://www.w3.org/2000/svg" viewBox="-33 35 32 32"><g fill="currentColor"><path d="M-2.3 50.4l-3.8-3.8v-3h-7.4V53c0 4.5-2.8 8.1-6.5 8.3.9 3 3.4 5.2 6.4 5.2h.2c3.9 0 7.3-3.5 7.3-7.9v-4.8l.2.2c1.4 1.4 3.2 1.6 4.2.6 1.1-1.1.9-2.8-.6-4.2zM-6.6 41.2v-.5c0-.6-.5-1.2-1.2-1.2h-5.7v2.9h5.7c.6 0 1.2-.5 1.2-1.2z"/><path d="M-14.1 52.9V39h-13.8v1.9l-.6.6-3.3 3.3c-1.4 1.4-1.6 3.2-.6 4.2.9.9 2.5.9 3.9-.3l.3-.3.3-.3v4.8c0 4.2 3.4 7.8 7.2 7.8h.2c3.6 0 6.4-3.4 6.4-7.8zM-26.4 37.8h10.8c.5 0 .9-.4.9-.9v-.5c0-.2-.1-.5-.3-.6s-.4-.3-.6-.3h-10.8c-.5 0-.9.4-.9.9v.5c0 .5.4.9.9.9z"/></g></svg>