<svg xmlns="http://www.w3.org/2000/svg" width="16" height="10" viewBox="0 0 16 10"><path fill="currentColor" d="M15.114 8.334c0 .292-.088.563-.228.802l-4.493-4.71L14.837.78c.172.258.276.56.276.887v6.667zM8 5.28L14.184.21c-.254-.13-.54-.21-.847-.21H2.664c-.31 0-.595.08-.848.21L8 5.28zm1.724-.307L8.292 6.147c-.083.07-.188.103-.292.103-.105 0-.21-.034-.292-.103L6.275 4.973l-4.55 4.77c.274.16.593.257.94.257h10.672c.344 0 .664-.096.938-.257l-4.55-4.77zM1.162.78c-.172.258-.277.56-.277.887v6.667c0 .292.087.563.23.802l4.49-4.712L1.163.78z"/></svg>