<svg xmlns="http://www.w3.org/2000/svg" viewBox="-33 35 32 32"><g fill="currentColor"><path d="M-24.4 63.9h5.7v-5.8h3.4v5.8h5.7V38h-14.7v25.9zM-16 41h3.4v3.4H-16V41zm0 5.5h3.4v3.4H-16v-3.4zm0 5.5h3.4v3.4H-16V52zm-5.4-11h3.4v3.4h-3.4V41zm0 5.5h3.4v3.4h-3.4v-3.4zm0 5.5h3.4v3.4h-3.4V52zM-8.3 40.3v18.3h2.2v5.3H-1V40.3h-7.3zm4.6 15.8h-3.1V53h3.1v3.1zm0-4.9h-3.1v-3.1h3.1v3.1zm0-5h-3.1v-3.1h3.1v3.1zM-33 63.9h5.1v-5.3h2.2V40.3H-33v23.6zm2.7-20.8h3.1v3.1h-3.1v-3.1zm0 5h3.1v3.1h-3.1v-3.1zm0 4.9h3.1v3.1h-3.1V53z"/></g></svg>