<svg xmlns="http://www.w3.org/2000/svg" viewBox="-33 35 32 32"><g fill="currentColor"><path d="M-12.7 47.4h-8.5c-.7 0-1.3.6-1.3 1.3v8.2c0 .7.6 1.3 1.3 1.3.4 0 .8-.2 1-.5l.5 8c0 .7.6 1.3 1.4 1.3h2.7c.7 0 1.3-.5 1.4-1.3l.5-8c.2.3.6.5 1 .5.7 0 1.3-.6 1.3-1.3v-8.2c0-.7-.6-1.3-1.3-1.3z"/><circle cx="-17" cy="42.8" r="3.6"/><path d="M-25.1 41.4h-6.7c-.6 0-1 .5-1 1v6.5c0 .6.5 1 1 1 .3 0 .6-.2.8-.4l.4 6.3c0 .6.5 1 1.1 1h2.1c.6 0 1-.4 1.1-1l.4-6.3c.2.2.5.4.8.4.6 0 1-.5 1-1v-6.5c.1-.5-.4-1-1-1z"/><circle cx="-28.4" cy="37.9" r="2.9"/><g><path d="M-8.9 41.4h6.7c.6 0 1 .5 1 1v6.5c0 .6-.5 1-1 1-.3 0-.6-.2-.8-.4l-.4 6.3c0 .6-.5 1-1.1 1h-2.1c-.6 0-1-.4-1.1-1l-.4-6.3c-.2.3-.5.5-.8.5-.6 0-1-.5-1-1v-6.5c-.1-.6.4-1.1 1-1.1z"/><circle cx="-5.6" cy="37.9" r="2.9"/></g></g></svg>