<svg xmlns="http://www.w3.org/2000/svg" viewBox="-33 35 32 32"><g fill="currentColor"><path d="M-15.7 37.6c.4-.5.3-1.5.3-2.4v-.1c-.5 0-1-.1-1.5-.1-2 0-3.9.4-5.7 1 1.3.6 3.2 1.6 5.4 3.2.6-.6 1.2-1.2 1.5-1.6zM-7.6 46.7c-.8.1-1.5.2-2 .4 2.7 4.7 3.8 10.7 4 15.1 2.7-2.7 4.4-6.5 4.6-10.6-1.9-2.2-4.3-5.1-6.6-4.9zM-23.8 42.6c1.9-.4 3.7-1.4 5.1-2.4-3-2.1-5.5-3.1-6-3.3-3.1 1.7-5.6 4.3-7 7.6 1.9-.7 3.9-1.1 5.9-1.5.7-.1 1.4-.2 2-.4z"/><path d="M-12.7 43.1l.5.5c.6.7 1.2 1.4 1.7 2.1.8-.3 1.6-.5 2.7-.6 2.5-.3 4.7 1.7 6.6 3.9-.4-3.3-1.8-6.3-4-8.7-1.2.1-2.4.4-3.8.8-.7.3-2.1 1-3.7 2zM-14.8 51.3c.7-2.2 1.4-3.8 2.9-4.9-.4-.6-.9-1.2-1.4-1.8-.2-.3-.5-.5-.7-.7-5.9 4-14 11.4-14.7 17.8 2.5 2.7 5.8 4.5 9.6 5.1 1.4-2.7 2.7-8.3 3.4-11.6.3-1.6.6-3 .9-3.9z"/><path d="M-21.5 47.8c2.1-1.9 4.2-3.6 6.2-5-.7-.6-1.3-1.1-2-1.6-1.7 1.2-3.8 2.5-6.2 3-.7.1-1.3.3-2 .4-2.5.5-4.9.9-7 2.1-.3 1.3-.5 2.8-.5 4.3 0 3.4 1.1 6.5 2.9 9.1 1.1-4.6 5.2-9.1 8.6-12.3zM-13.9 41.9c1.9-1.2 3.5-2.1 4.6-2.4 1-.3 1.9-.5 2.8-.6-2.1-1.8-4.6-3.1-7.3-3.6.1 1.1.1 2.3-.6 3.2-.3.4-.9 1-1.6 1.6l2.1 1.8zM-13.3 51.8c-.2.8-.6 2.2-.9 3.8-1.1 4.6-2.1 8.8-3.3 11.4h.5c3.7 0 7.2-1.3 9.9-3.4-.1-4.5-1.2-11-3.9-15.8-1.1.8-1.7 2.1-2.3 4z"/></g></svg>