<svg xmlns="http://www.w3.org/2000/svg" width="16" height="16" viewBox="0 0 16 16"><path fill="currentColor" d="M8 1.53l1.88 3.808.233.47.52.077 4.203.61-3.04 2.965-.376.366.09.52.716 4.187-3.76-1.976L8 12.312l-.465.244-3.76 1.974.72-4.185.088-.52-.377-.364-3.042-2.964 4.204-.61.52-.077.232-.472L8 1.528M8 .35c-.327 0-.625.187-.77.48L5.224 4.895l-4.488.653c-.323.047-.592.273-.693.584-.1.31-.017.652.217.88l3.248 3.165-.767 4.47c-.055.324.078.648.342.84.15.107.326.162.504.162.137 0 .274-.033.4-.1L8 13.44l4.014 2.11c.127.067.264.1.4.1.176 0 .354-.057.504-.164.264-.193.396-.52.342-.84l-.766-4.47L15.74 7.01c.234-.228.318-.57.216-.88-.1-.31-.37-.536-.69-.583l-4.488-.653L8.77.828C8.625.535 8.327.348 8 .348z"/></svg>