<svg xmlns="http://www.w3.org/2000/svg" width="37.286" height="37.287" viewBox="0 0 37.286 37.287"><path fill="#FBB568" d="M36.683 16.34l-7.567 7.376 1.786 10.417c.128.75-.182 1.51-.797 1.957-.35.253-.763.382-1.176.382-.32 0-.64-.076-.932-.23l-9.355-4.917-9.355 4.918c-.674.354-1.49.295-2.107-.15-.614-.448-.923-1.206-.794-1.957L8.173 23.72l-7.57-7.38c-.546-.53-.74-1.326-.507-2.05.236-.724.86-1.25 1.615-1.36l10.46-1.522 4.68-9.478c.335-.684 1.03-1.116 1.792-1.116.763 0 1.456.432 1.793 1.115l4.68 9.477 10.462 1.52c.752.11 1.38.638 1.61 1.362.237.723.04 1.518-.504 2.05z"/></svg>