<svg xmlns="http://www.w3.org/2000/svg" width="57" height="57" viewBox="-5.664 -5.664 57 57"><g fill="currentColor"><path d="M37.373 28.012c-.807 0-1.462 2.096-1.462 2.903s.656 1.462 1.463 1.462c.81 0 1.463-.654 1.463-1.462 0-.806-.654-2.903-1.463-2.903zM34.79 34.915c-.806 0-1.46 2.094-1.46 2.9 0 .81.654 1.464 1.46 1.464.81 0 1.464-.655 1.464-1.464s-.654-2.9-1.463-2.9zM32.773 23.777c.697 1.373 2.062 2.314 3.613 2.453.258.022.51-.073.688-.26.177-.188.257-.445.22-.7l-1.03-7.067c-.04-.255-.19-.48-.415-.607-.224-.13-.493-.148-.732-.054-1.448.577-2.484 1.87-2.76 3.386l-8.04 1.177 3.964-5.025c.577-.73.49-1.783-.197-2.41l-6.69-6.1c-.688-.626-1.743-.615-2.417.026l-.148.14c-.168-.194-.346-.38-.54-.556-1.264-1.153-2.902-1.787-4.61-1.787-1.923 0-3.768.814-5.063 2.233-2.5 2.744-2.344 6.978.312 9.538-.318.333-.5.773-.495 1.236.005.492.214.96.58 1.292l8.14 7.423c.364.332.85.496 1.34.458.49-.042.943-.283 1.248-.67l1.98-2.51 11.05-1.616zm-22.56-13.695c.887-.972 2.15-1.53 3.466-1.53 1.17 0 2.29.436 3.155 1.225.155.142.295.294.427.45l-6.775 6.443c-1.876-1.745-2.004-4.69-.273-6.588z"/></g></svg>