<svg xmlns="http://www.w3.org/2000/svg" viewBox="-21 22 57 57"><g fill="currentColor"><path d="M31.8 59.2c-1.4 0-2.4 3.5-2.4 4.9 0 1.4 1.1 2.4 2.4 2.4 1.4 0 2.4-1.1 2.4-2.4.1-1.4-1-4.9-2.4-4.9zM27.5 70.7c-1.4 0-2.4 3.5-2.4 4.9 0 1.4 1.1 2.4 2.4 2.4 1.4 0 2.4-1.1 2.4-2.4s-1-4.9-2.4-4.9zM24.1 52.1c1.2 2.3 3.5 3.9 6 4.1.4 0 .9-.1 1.2-.4.3-.3.4-.7.4-1.2L30 42.7c-.1-.4-.3-.8-.7-1-.4-.2-.8-.2-1.2-.1-2.4 1-4.2 3.1-4.6 5.7l-13.5 2 6.6-8.4c1-1.2.8-3-.3-4L5.1 26.6c-1.2-1-2.9-1-4 0l-.2.2-.9-.9C-2.2 24-5 23-7.8 23c-3.2 0-6.3 1.4-8.5 3.7-4.2 4.6-3.9 11.7.5 16-.5.6-.8 1.3-.8 2.1s.4 1.6 1 2.2L-2 59.3c.6.6 1.4.8 2.2.8.9-.1 1.6-.5 2.1-1.1l3.3-4.2 18.5-2.7zm-37.7-22.9c1.5-1.6 3.6-2.6 5.8-2.6 2 0 3.8.7 5.3 2 .3.2.5.5.7.8l-11.3 10.8c-3.2-2.9-3.4-7.9-.5-11z"/></g></svg>