<svg xmlns="http://www.w3.org/2000/svg" viewBox="-33 35 32 32"><path fill="currentColor" d="M-1.2 46.2c-.2-.2-.4-.3-.6-.3h-3.1c-.8-2-1.8-4-2.9-4.8-3.9-2.6-14.4-2.6-18.3 0-1.1.8-2.1 2.7-2.9 4.8h-3.1c-.2 0-.5.1-.6.3-.2.2-.2.4-.2.7l.5 2.2c.1.4.4.7.8.7h.9c-.9 1-1.3 2.3-1.3 3.6 0 1.6.6 3 1.7 4.1v3.1c0 .7.6 1.2 1.2 1.2h2.9c.7 0 1.2-.6 1.2-1.2v-1.3h16v1.3c0 .7.6 1.2 1.2 1.2h2.9c.7 0 1.2-.6 1.2-1.2v-3.1c1.2-1.1 1.7-2.6 1.7-4 0-1.3-.4-2.7-1.4-3.7h1c.4 0 .7-.3.8-.7l.5-2.2c.1-.2.1-.5-.1-.7zm-23.6-3c3.1-2.1 12.5-2.1 15.6 0 .6.4 1.4 2 2.1 4h-19.8c.7-2 1.5-3.6 2.1-4zm-3.7 10.5c0-1.3 1.1-2.4 2.4-2.4 1.3 0 2.4 1.1 2.4 2.4 0 1.3-1.1 2.4-2.4 2.4-1.3 0-2.4-1.1-2.4-2.4zm20.6 2.4c-1.3 0-2.4-1.1-2.4-2.4 0-1.3 1.1-2.4 2.4-2.4 1.3 0 2.4 1.1 2.4 2.4 0 1.3-1.1 2.4-2.4 2.4z"/></svg>