<svg xmlns="http://www.w3.org/2000/svg" width="32" height="32" viewBox="0 0 32 32"><path fill="currentColor" d="M16 22c4.963 0 9-4.936 9-11S20.962 0 16 0c-2.447 0-4.734 1.174-6.438 3.305C7.91 5.37 7 8.105 7 11c0 6.064 4.037 11 9 11zm0-20c3.86 0 7 4.038 7 9 0 4.963-3.14 9-7 9s-7-4.037-7-9c0-4.962 3.14-9 7-9zm7 18c-.553 0-1 .447-1 1s.447 1 1 1c3.86 0 7 3.14 7 7 0 .55-.45 1-1 1H3c-.55 0-1-.45-1-1 0-3.86 3.14-7 7-7 .553 0 1-.447 1-1s-.447-1-1-1c-4.963 0-9 4.037-9 9 0 1.654 1.346 3 3 3h26c1.654 0 3-1.346 3-3 0-4.962-4.037-9-9-9z"/></svg>