<svg xmlns="http://www.w3.org/2000/svg" width="16" height="16" viewBox="0 0 16 16"><path fill="currentColor" d="M8 0C3.58 0 0 3.58 0 8c0 4.417 3.58 8 8 8s8-3.582 8-8c0-4.42-3.58-8-8-8zm0 14.695c-3.698 0-6.695-2.997-6.695-6.696S4.302 1.302 8 1.302c3.698 0 6.695 3 6.695 6.698 0 3.698-2.997 6.695-6.695 6.695z"/><path fill="#C4CACF" d="M8.85 9.73l.326-6.696H6.84l.326 6.696M8.007 10.468c-.783 0-1.33.548-1.33 1.347 0 .768.532 1.344 1.3 1.344h.03c.797 0 1.315-.577 1.315-1.345-.013-.8-.53-1.347-1.315-1.347z"/></svg>