<svg xmlns="http://www.w3.org/2000/svg" viewBox="-33 35 32 32"><g fill="currentColor"><path d="M-15.5 41.5c.9 0 1.5-.6 1.6-1.5l.4-3.5c0-.8-.7-1.5-1.6-1.5h-3.8c-.9 0-1.6.7-1.6 1.5l.4 3.5c.1 1 .7 1.5 1.6 1.5.7 0 .8-.2 1.6-.2s.9.2 1.4.2M-13.6 51.2l-7.5 4-.2 1.2 7.9-4.1M-14.3 46.8l-5.9 3-.8 4.7 7.3-3.9M-20.1 49.2l5.7-3-.2-1-5.3 2.8M-21.8 61.6l.9 1 8.5-4.5-.8-4.7-8.3 4.4-.3 1.6c0 .3-.5 1.6 0 2.2M-19.2 64.6l1.6 1.9c.6.6.7.6 1.2 0l4.2-4.9c.2-.2.3-.5.3-.8l-7.3 3.8zM-14.8 44.1l-.3-1.8c-.6-.6-3.3-.6-3.9 0l-.7 4.3 4.9-2.5zM-12.2 59.4v-.1l-7.9 4.2.6.7 7.6-4c-.2-.3-.3-.6-.3-.8"/></g></svg>