<?xml version="1.0" encoding="utf-8"?>
<!-- Generator: Adobe Illustrator 18.1.1, SVG Export Plug-In . SVG Version: 6.00 Build 0)  -->
<svg version="1.1" id="Layer_1" xmlns="http://www.w3.org/2000/svg" xmlns:xlink="http://www.w3.org/1999/xlink" x="0px" y="0px"
	 viewBox="-33 35 32 32" enable-background="new -33 35 32 32" xml:space="preserve">
<path fill="#FFFFFF" d="M-15.4,49.4l-3.2,0l0,0H-25v3.2h6.4l0,0l3.2,0l0,0H-9v-3.2H-15.4L-15.4,49.4z M-17,35c-8.8,0-16,7.2-16,16
	c0,8.8,7.2,16,16,16h12.8c1.8,0,3.2-1.4,3.2-3.2V51C-1,42.2-8.2,35-17,35z M-17,63.8c-7.1,0-12.8-5.7-12.8-12.8
	c0-7.1,5.7-12.8,12.8-12.8c7.1,0,12.8,5.7,12.8,12.8C-4.2,58.1-9.9,63.8-17,63.8z"/>
</svg>
