<?xml version="1.0" encoding="utf-8"?>
<!-- Generator: Adobe Illustrator 16.0.3, SVG Export Plug-In . SVG Version: 6.00 Build 0)  -->
<!DOCTYPE svg PUBLIC "-//W3C//DTD SVG 1.1//EN" "http://www.w3.org/Graphics/SVG/1.1/DTD/svg11.dtd">
<svg version="1.1" id="Layer_1" xmlns="http://www.w3.org/2000/svg" xmlns:xlink="http://www.w3.org/1999/xlink" x="0px" y="0px"
	 width="32px" height="32px" viewBox="0 0 32 32" enable-background="new 0 0 32 32" xml:space="preserve">
<g>
	<path fill="#ffffff" d="M17.598,8h-3.196v6.401H8v3.196h6.401V24h3.196v-6.402H24v-3.196h-6.402V8z M16,0C7.184,0,0,7.184,0,16
		c0,8.814,7.184,16,16,16h12.801C30.559,32,32,30.559,32,28.801V16C32,7.184,24.814,0,16,0z M16,28.801
		C8.942,28.801,3.2,23.059,3.2,16C3.2,8.942,8.942,3.2,16,3.2c7.059,0,12.801,5.742,12.801,12.8
		C28.801,23.059,23.059,28.801,16,28.801z"/>
</g>
</svg>
